<svg width="100" height="100" viewBox="0 0 100 100" fill="none" xmlns="http://www.w3.org/2000/svg">
<g id="Meros discont">
<g id="Group">
<g id="Group_2">
<g id="Group_3">
<path id="Vector" d="M90.1244 44.3445L86.3578 39.4438C86.2922 39.0124 86.3028 38.1596 86.3096 37.6233C86.3125 37.3888 86.3153 37.1597 86.3153 36.9404V30.7407C86.3153 26.69 83.5615 23.3804 79.1286 22.1039L72.933 20.3194C72.3304 20.146 71.805 19.7688 71.4534 19.2573L67.8215 13.977C65.4439 10.5207 61.0149 9.09105 57.0514 10.5001L50.9594 12.666C50.3662 12.8767 49.7133 12.8767 49.1206 12.666L43.0287 10.5004C39.0651 9.09138 34.6362 10.5209 32.2587 13.9773L28.6266 19.2577C28.2931 19.7425 27.8033 20.1067 27.2398 20.2911L20.7857 21.6471C20.7071 21.6637 20.6292 21.6831 20.5521 21.7052C16.4444 22.8883 13.6604 26.6217 13.7645 30.7967V37.1617C13.7645 37.3831 13.7691 37.6149 13.7741 37.8533C13.7839 38.3254 13.7997 39.0966 13.7189 39.4122L9.95164 44.3492C7.35482 47.6822 7.35596 52.3262 9.95509 55.658L13.7284 60.5725C13.7975 60.8712 13.7844 61.6264 13.7745 62.1871C13.7695 62.4745 13.7645 62.7684 13.7645 63.0679V69.4441C13.6701 73.3573 16.4188 76.5942 20.9512 77.8994L27.1468 79.6838C27.7494 79.8573 28.2749 80.2343 28.6266 80.7458L32.2584 86.026C34.0232 88.592 36.918 90.0409 39.9147 90.0407C40.9546 90.0405 42.0073 89.866 43.0286 89.5029L49.1202 87.3373C49.7135 87.1266 50.3664 87.1266 50.9591 87.3373L57.0509 89.5029C58.0724 89.8661 59.1246 90.0407 60.1648 90.0407C63.1611 90.0407 66.0563 88.5916 67.821 86.026L71.4531 80.7457C71.8048 80.2345 72.3302 79.8573 72.9327 79.6838L79.1283 77.8994C83.1568 76.7393 86.4473 72.1311 86.3135 67.8367C86.257 66.0241 84.7356 64.5958 82.929 64.6568C81.1164 64.7133 79.6926 66.2284 79.7491 68.0413C79.7885 69.3062 78.4439 71.2621 77.3106 71.5884L71.115 73.3727C69.0549 73.9662 67.2532 75.2627 66.0419 77.0237L62.4099 82.3041C61.7157 83.3136 60.4167 83.7292 59.2509 83.3149L53.1589 81.1493C51.1478 80.4343 48.9324 80.4342 46.9206 81.1493L40.8288 83.3149C39.6628 83.7293 38.3642 83.3137 37.6696 82.3041L34.0378 77.0239C32.8267 75.2629 31.0249 73.9662 28.9647 73.3729L22.7691 71.5886C22.5154 71.5153 20.2918 70.8386 20.3306 69.5914C20.3317 69.5574 20.3322 69.5232 20.3322 69.4891V63.068C20.3322 62.8076 20.337 62.5516 20.3412 62.3017C20.3711 60.5911 20.4081 58.4635 18.9815 56.6298L15.1565 51.6483C15.15 51.6399 15.1435 51.6315 15.1371 51.6233C14.3891 50.6685 14.3891 49.3348 15.1371 48.3802C15.1454 48.3693 15.154 48.3583 15.1624 48.3473L18.9849 43.3378C20.4182 41.4912 20.3713 39.2214 20.3402 37.7177C20.3363 37.5261 20.3322 37.3395 20.3322 37.1617V30.751C20.3322 30.717 20.3317 30.6829 20.3306 30.6487C20.2951 29.5047 21.108 28.4245 22.2762 28.045L28.731 26.6889C28.8097 26.6723 28.8875 26.6529 28.9647 26.6307C31.0247 26.0373 32.8265 24.7408 34.0378 22.9797L37.6698 17.6994C38.364 16.6897 39.6625 16.274 40.8288 16.6886L46.9208 18.8542C48.9319 19.5691 51.1473 19.5691 53.1591 18.8542L59.2509 16.6886C60.417 16.2741 61.7155 16.6899 62.4099 17.6994L66.0419 22.9796C67.253 24.7408 69.0548 26.0375 71.115 26.6307L77.3106 28.4151C78.2207 28.6772 79.7475 29.3279 79.7475 30.7408V36.9405C79.7475 37.1335 79.745 37.3348 79.7424 37.5408C79.7183 39.4525 79.6885 41.8133 81.1854 43.492L84.9242 48.3565C84.9303 48.3644 84.9365 48.3725 84.9426 48.3803C85.6905 49.3352 85.6905 50.6686 84.9426 51.6235C83.8241 53.0512 84.0751 55.1153 85.5029 56.2335C86.9307 57.3517 88.9944 57.1012 90.1129 55.6731C92.725 52.3392 92.7286 47.6833 90.1244 44.3445Z" fill="white"/>
<path id="Vector_2" d="M39.9113 69.3345C40.4078 69.603 40.9426 69.7303 41.4699 69.7303C42.6372 69.7303 43.7676 69.1061 44.3615 68.0073L62.1116 35.1697C62.9741 33.5745 62.3799 31.5819 60.7845 30.7195C59.189 29.8568 57.1964 30.4514 56.3343 32.0467L38.5842 64.8844C37.7217 66.4796 38.3159 68.4722 39.9113 69.3345Z" fill="white"/>
<path id="Vector_3" d="M44.62 38.5332C44.62 34.0066 40.9373 30.3237 36.4107 30.3237C31.884 30.3237 28.2012 34.0064 28.2012 38.5332C28.2012 43.0601 31.8838 46.7426 36.4107 46.7426C40.9373 46.7426 44.62 43.0599 44.62 38.5332ZM36.4107 40.1751C35.5053 40.1751 34.7688 39.4385 34.7688 38.5332C34.7688 37.628 35.5054 36.8914 36.4107 36.8914C37.3161 36.8914 38.0525 37.628 38.0525 38.5332C38.0525 39.4385 37.3159 40.1751 36.4107 40.1751Z" fill="white"/>
<path id="Vector_4" d="M63.5063 69.7235C68.0329 69.7235 71.7158 66.0408 71.7158 61.514C71.7158 56.9872 68.0331 53.3047 63.5063 53.3047C58.9796 53.3047 55.2969 56.9874 55.2969 61.514C55.2969 66.0407 58.9796 69.7235 63.5063 69.7235ZM63.5063 59.8723C64.4117 59.8723 65.1481 60.6089 65.1481 61.5142C65.1481 62.4194 64.4115 63.156 63.5063 63.156C62.6009 63.156 61.8644 62.4194 61.8644 61.5142C61.8644 60.6089 62.601 59.8723 63.5063 59.8723Z" fill="white"/>
</g>
</g>
</g>
</g>
</svg>
