<svg width="96" height="96" viewBox="0 0 96 96" fill="none" xmlns="http://www.w3.org/2000/svg">
<g id="&#208;&#152;&#208;&#180;&#208;&#181;&#208;&#176; &#208;&#191;&#208;&#190;&#208;&#180;&#208;&#176;&#209;&#128;&#208;&#186;&#208;&#184;">
<g id="Group">
<g id="Group_2">
<path id="Vector" d="M77.7149 62.1549C79.1744 62.1549 80.3575 60.9718 80.3575 59.5123V44.4493C80.3575 38.6207 75.6156 33.8787 69.787 33.8787H58.9039C61.387 32.8219 62.4197 32.0153 63.0009 31.434C66.6072 27.8277 66.6074 21.9599 63.0009 18.3536C59.3947 14.7474 53.5271 14.7474 49.9206 18.3536C49.1575 19.1168 48.0055 20.6593 46.4093 25.2405C44.813 20.6593 43.6611 19.1167 42.8979 18.3536C39.2916 14.7474 33.4241 14.7474 29.8175 18.3536C26.2112 21.9599 26.2112 27.8277 29.8175 31.434C30.3988 32.0153 31.4316 32.8221 33.9147 33.8787H23.2766C17.448 33.8787 12.7061 38.6207 12.7061 44.4493V72.7254C12.7061 78.554 17.448 83.296 23.2766 83.296H69.787C75.6156 83.296 80.3575 78.554 80.3575 72.7254C80.3575 71.2659 79.1744 70.0828 77.7149 70.0828C76.2554 70.0828 75.0722 71.2659 75.0722 72.7254C75.0722 75.6397 72.7013 78.0107 69.787 78.0107H49.1744V39.29C52.0238 39.8733 54.3615 41.445 56.1452 43.9856C58.0938 46.7614 58.82 49.9576 58.82 51.3201C58.82 52.7796 60.0031 53.9627 61.4627 53.9627C62.9222 53.9627 64.1053 52.7796 64.1053 51.3201C64.1053 48.7347 62.9815 44.5252 60.4709 40.9489C60.0611 40.3653 59.5875 39.7619 59.0466 39.164H69.787C72.7013 39.164 75.0722 41.535 75.0722 44.4493V59.5123C75.0722 60.9718 76.2554 62.1549 77.7149 62.1549ZM33.5549 27.6969C32.8059 26.948 32.3937 25.9525 32.3937 24.8938C32.3937 23.835 32.8059 22.8395 33.5546 22.0908C35.1003 20.5454 37.615 20.5454 39.1605 22.0908C39.2779 22.2082 40.3592 23.4079 42.1911 29.3413C42.3998 30.017 42.5957 30.6819 42.7751 31.3114C42.1544 31.1343 41.499 30.9413 40.8318 30.7356C34.8762 28.8991 33.6725 27.8147 33.5549 27.6969ZM43.8891 78.0107H23.2766C20.3623 78.0107 17.9913 75.6397 17.9913 72.7254V44.4493C17.9913 41.535 20.3623 39.164 23.2766 39.164H33.4925C32.0523 40.726 30.8279 42.6151 29.8397 44.8233C27.3053 50.4871 27.1084 56.4869 27.1084 58.191C27.1084 59.6505 28.2915 60.8336 29.7511 60.8336C31.2106 60.8336 32.3937 59.6505 32.3937 58.191C32.3937 57.1664 32.5031 51.8114 34.6642 46.9821C36.6608 42.5203 39.6936 39.9724 43.8891 39.2491V78.0107ZM52.0134 30.727C51.3377 30.9356 50.6728 31.1316 50.0434 31.311C50.2229 30.6817 50.4187 30.0169 50.6273 29.3412C52.4591 23.4079 53.5406 22.208 53.6578 22.0907C54.4308 21.3179 55.4455 20.9317 56.4608 20.9317C57.4759 20.9317 58.491 21.3181 59.2637 22.0907C60.0125 22.8395 60.4248 23.8349 60.4248 24.8936C60.4248 25.9524 60.0125 26.9479 59.2637 27.6965C59.1464 27.8139 57.9463 28.8954 52.0134 30.727Z" fill="white"/>
</g>
</g>
</g>
</svg>
