<svg width="96" height="96" viewBox="0 0 96 96" fill="none" xmlns="http://www.w3.org/2000/svg">
<g id="Meros Merch">
<g id="Group">
<g id="Group_2">
<g id="Group_3" opacity="0.5">
<g id="Group_4" opacity="0.5">
<path id="Vector" opacity="0.5" d="M73.9763 23.6562C73.8656 23.6562 73.758 23.6593 73.6504 23.6623C74.9603 23.7079 76.1995 23.9664 77.3126 24.4134C76.304 23.9299 75.1725 23.6562 73.9763 23.6562Z" fill="white"/>
</g>
</g>
<g id="Group_5" opacity="0.5">
<g id="Group_6" opacity="0.5">
<path id="Vector_2" opacity="0.5" d="M79.7879 36.063C79.5017 36.3762 79.197 36.6772 78.877 36.96C79.2062 36.6894 79.5109 36.3884 79.7879 36.063Z" fill="white"/>
</g>
</g>
</g>
<g id="Group_7">
<g id="Group_8">
<path id="Vector_3" d="M60.7295 41.1564C60.9942 40.3384 61.2927 39.5386 61.6281 38.7632C61.2619 39.566 60.948 40.3809 60.7295 41.1564Z" fill="white"/>
</g>
<g id="Group_9">
<path id="Vector_4" d="M64.9043 33.0747C64.9043 33.0747 64.9011 33.0811 64.8916 33.0938C64.8948 33.0875 64.9011 33.0811 64.9043 33.0747Z" fill="white"/>
</g>
</g>
<g id="Group_10">
<g id="Group_11">
<path id="Vector_5" d="M55.6105 16.7468C51.7422 19.5535 54.0269 24.8902 54.0269 24.8902C27.2197 3.26659 8.69941 25.1153 13.7638 41.7032C13.8899 42.1228 13.9975 42.5151 14.0713 42.8831C14.1943 43.324 14.2619 43.7892 14.2619 44.2697C14.2619 47.122 11.9219 49.4361 9.03764 49.4361C7.86302 49.4361 6.77758 49.053 5.9043 48.4053C6.93132 53.8332 14.7355 54.9614 17.2569 50.5096C19.2741 54.2073 22.472 54.9614 22.472 54.9614C24.5506 52.4192 23.2838 47.7363 23.2838 47.7363C28.8033 49.1381 34.3597 44.1998 30.5006 36.2053C30.5006 36.2053 30.4545 42.7614 23.3699 41.9799C12.3001 40.7636 15.7717 20.484 32.5116 20.484C44.347 20.484 51.2472 28.5119 55.8503 33.0671C55.8503 33.0671 57.1848 31.0602 59.0329 29.4819C58.9314 29.3086 58.8361 29.1383 58.75 28.968C58.7438 28.9528 58.7346 28.9407 58.7285 28.9285C55.5736 22.8072 59.7463 18.1334 65.5148 20.7577C63.0426 15.9774 58.3533 14.755 55.6105 16.7468Z" fill="white"/>
</g>
</g>
<g id="Group_12">
<g id="Group_13">
<path id="Vector_6" d="M17.4219 69.4961C18.1014 70.3688 18.9932 71.0226 20.0294 71.4514C19.0208 70.9983 18.1291 70.3262 17.4219 69.4961Z" fill="white"/>
</g>
<g id="Group_14" opacity="0.5">
<g id="Group_15" opacity="0.5">
<path id="Vector_7" opacity="0.5" d="M20.0293 71.4521C20.9671 71.8718 22.0065 72.109 23.1011 72.109C23.4517 72.109 23.7961 72.0847 24.1343 72.039C22.6338 72.1485 21.2316 71.9509 20.0293 71.4521Z" fill="white"/>
</g>
</g>
</g>
<g id="Group_16">
<g id="Group_17">
<path id="Vector_8" d="M28.5938 65.5715C28.5994 65.5659 28.6078 65.5602 28.6163 65.5518C28.6078 65.5602 28.6022 65.5659 28.5938 65.5715Z" fill="white"/>
</g>
<g id="Group_18">
<path id="Vector_9" d="M28.1484 65.9456C28.1549 65.9424 28.1614 65.9359 28.1647 65.9326C28.1614 65.9359 28.1549 65.9391 28.1484 65.9456Z" fill="white"/>
</g>
<g id="Group_19">
<path id="Vector_10" d="M27.9941 66.0718C28.0063 66.0627 28.0154 66.0535 28.0276 66.0444C28.0154 66.0535 28.0033 66.0627 27.9941 66.0718Z" fill="white"/>
</g>
<g id="Group_20">
<path id="Vector_11" d="M29.3428 64.8696C29.37 64.8425 29.3971 64.8153 29.4213 64.7881C29.3941 64.8153 29.37 64.8425 29.3428 64.8696Z" fill="white"/>
</g>
<g id="Group_21">
<path id="Vector_12" d="M28.8691 65.3263C28.891 65.3045 28.916 65.2826 28.9379 65.2607C28.916 65.2826 28.8941 65.3045 28.8691 65.3263Z" fill="white"/>
</g>
<g id="Group_22">
<path id="Vector_13" d="M29.502 64.708C29.5292 64.6807 29.5565 64.6503 29.5838 64.623C29.5565 64.6534 29.5292 64.6807 29.502 64.708Z" fill="white"/>
</g>
<g id="Group_23">
<path id="Vector_14" d="M29.0283 65.18C29.0527 65.1557 29.077 65.1313 29.1014 65.1069C29.077 65.1343 29.0527 65.1587 29.0283 65.18Z" fill="white"/>
</g>
<g id="Group_24">
<path id="Vector_15" d="M27.0713 66.7064C27.0777 66.7032 27.084 66.7 27.0904 66.6968C27.084 66.7 27.0777 66.7032 27.0713 66.7064Z" fill="white"/>
</g>
<g id="Group_25">
<path id="Vector_16" d="M27.2158 66.6176C27.2243 66.6119 27.2327 66.6062 27.2412 66.6006C27.2327 66.6062 27.2243 66.6119 27.2158 66.6176Z" fill="white"/>
</g>
<g id="Group_26">
<path id="Vector_17" d="M27.5205 66.4115C27.5324 66.4026 27.5443 66.3936 27.5562 66.3877C27.5443 66.3936 27.5324 66.4026 27.5205 66.4115Z" fill="white"/>
</g>
<g id="Group_27">
<path id="Vector_18" d="M27.3711 66.5154C27.3802 66.5093 27.3924 66.5002 27.4046 66.4941C27.3924 66.5002 27.3802 66.5063 27.3711 66.5154Z" fill="white"/>
</g>
<g id="Group_28">
<path id="Vector_19" d="M27.6758 66.2983C27.6877 66.2893 27.6996 66.2804 27.7115 66.2715C27.7026 66.2804 27.6907 66.2893 27.6758 66.2983Z" fill="white"/>
</g>
<g id="Group_29">
<path id="Vector_20" d="M27.835 66.1865C27.8469 66.1775 27.8588 66.1686 27.8707 66.1597C27.8617 66.1686 27.8498 66.1775 27.835 66.1865Z" fill="white"/>
</g>
<g id="Group_30">
<path id="Vector_21" d="M28.7197 65.4621C28.7405 65.4443 28.7583 65.4294 28.7761 65.4116C28.7583 65.4294 28.7405 65.4443 28.7197 65.4621Z" fill="white"/>
</g>
<g id="Group_31">
<path id="Vector_22" d="M29.2621 64.9473C29.238 64.9714 29.2108 64.9986 29.1836 65.0228C29.2108 64.9986 29.2349 64.9744 29.2621 64.9473Z" fill="white"/>
</g>
<g id="Group_32">
<path id="Vector_23" d="M29.9746 64.1947C30.0054 64.1608 30.0362 64.1239 30.067 64.0869C30.0362 64.1208 30.0054 64.1577 29.9746 64.1947Z" fill="white"/>
</g>
<g id="Group_33">
<path id="Vector_24" d="M29.8213 64.3674C29.8514 64.3343 29.8786 64.3042 29.9087 64.271C29.8786 64.3042 29.8514 64.3373 29.8213 64.3674Z" fill="white"/>
</g>
<g id="Group_34">
<path id="Vector_25" d="M30.1357 64.0104C30.1699 63.9705 30.2071 63.9307 30.2413 63.8877C30.204 63.9307 30.1699 63.9705 30.1357 64.0104Z" fill="white"/>
</g>
<g id="Group_35">
<path id="Vector_26" d="M29.6621 64.5353C29.6892 64.5051 29.7164 64.475 29.7465 64.4448C29.7194 64.478 29.6922 64.5081 29.6621 64.5353Z" fill="white"/>
</g>
<g id="Group_36">
<path id="Vector_27" d="M30.2949 63.8323C30.3477 63.7679 30.4005 63.7065 30.4533 63.6421C30.4005 63.7065 30.3477 63.7679 30.2949 63.8323Z" fill="white"/>
</g>
<g id="Group_37">
<path id="Vector_28" d="M27.3994 66.495C27.4398 66.467 27.4802 66.4391 27.5205 66.4111C27.4833 66.4391 27.4429 66.467 27.3994 66.495Z" fill="white"/>
</g>
<g id="Group_38">
<path id="Vector_29" d="M27.7129 66.2741C27.7533 66.2462 27.7936 66.2151 27.834 66.1841C27.7936 66.2151 27.7533 66.2462 27.7129 66.2741Z" fill="white"/>
</g>
<g id="Group_39">
<path id="Vector_30" d="M29.3441 64.8696C29.3169 64.8968 29.2928 64.924 29.2656 64.9481C29.2898 64.9209 29.3169 64.8938 29.3441 64.8696Z" fill="white"/>
</g>
<g id="Group_40">
<path id="Vector_31" d="M27.5596 66.3873C27.5999 66.3593 27.6403 66.3314 27.6807 66.3003C27.6372 66.3314 27.5968 66.3593 27.5596 66.3873Z" fill="white"/>
</g>
<g id="Group_41">
<path id="Vector_32" d="M26.9258 66.7926C26.9719 66.7649 27.0179 66.7342 27.0671 66.7065C27.021 66.7342 26.9749 66.7649 26.9258 66.7926Z" fill="white"/>
</g>
<g id="Group_42">
<path id="Vector_33" d="M29.584 64.6225C29.6081 64.5954 29.6353 64.5682 29.6595 64.541C29.6323 64.5682 29.6081 64.5954 29.584 64.6225Z" fill="white"/>
</g>
<g id="Group_43">
<path id="Vector_34" d="M25.5918 67.4255C26.0257 67.2735 26.4719 67.0606 26.9274 66.793C26.4719 67.0606 26.0257 67.2735 25.5918 67.4255Z" fill="white"/>
</g>
<g id="Group_44">
<path id="Vector_35" d="M27.085 66.7021C27.128 66.6744 27.171 66.6468 27.2171 66.6191C27.171 66.6468 27.128 66.6744 27.085 66.7021Z" fill="white"/>
</g>
<g id="Group_45">
<path id="Vector_36" d="M27.2451 66.6015C27.2851 66.5738 27.3281 66.5462 27.3711 66.5186C27.3281 66.5462 27.2851 66.5738 27.2451 66.6015Z" fill="white"/>
</g>
<g id="Group_46">
<path id="Vector_37" d="M28.9424 65.2606C28.9697 65.2333 29 65.206 29.0273 65.1787C29 65.206 28.9697 65.2333 28.9424 65.2606Z" fill="white"/>
</g>
<g id="Group_47">
<path id="Vector_38" d="M29.9072 64.2719C29.9314 64.2447 29.9525 64.2205 29.9767 64.1934C29.9525 64.2205 29.9284 64.2477 29.9072 64.2719Z" fill="white"/>
</g>
<g id="Group_48">
<path id="Vector_39" d="M29.1006 65.1078C29.1278 65.0807 29.155 65.0535 29.1821 65.0293C29.155 65.0535 29.1278 65.0807 29.1006 65.1078Z" fill="white"/>
</g>
<g id="Group_49">
<path id="Vector_40" d="M29.749 64.4457C29.7732 64.4185 29.7973 64.3944 29.8215 64.3672C29.7973 64.3944 29.7732 64.4216 29.749 64.4457Z" fill="white"/>
</g>
<g id="Group_50">
<path id="Vector_41" d="M29.4189 64.7866C29.4461 64.7595 29.4703 64.7323 29.4975 64.7051C29.4703 64.7323 29.4461 64.7595 29.4189 64.7866Z" fill="white"/>
</g>
<g id="Group_51">
<path id="Vector_42" d="M28.7773 65.4081C28.8075 65.381 28.8376 65.3539 28.8677 65.3237C28.8376 65.3509 28.8075 65.381 28.7773 65.4081Z" fill="white"/>
</g>
<g id="Group_52">
<path id="Vector_43" d="M28.6172 65.5481C28.6499 65.5184 28.6825 65.4887 28.7152 65.459C28.6825 65.4887 28.6499 65.5184 28.6172 65.5481Z" fill="white"/>
</g>
<g id="Group_53">
<path id="Vector_44" d="M27.874 66.162C27.9144 66.131 27.9547 66.0999 27.9951 66.0688C27.9547 66.103 27.9144 66.131 27.874 66.162Z" fill="white"/>
</g>
<g id="Group_54">
<path id="Vector_45" d="M28.0273 66.0412C28.0673 66.0074 28.1103 65.9767 28.1533 65.9429C28.1103 65.9767 28.0673 66.0074 28.0273 66.0412Z" fill="white"/>
</g>
<g id="Group_55">
<path id="Vector_46" d="M30.2363 63.8936C30.2543 63.8726 30.2723 63.8516 30.2903 63.8306C30.2723 63.8516 30.2543 63.8726 30.2363 63.8936Z" fill="white"/>
</g>
<g id="Group_56">
<path id="Vector_47" d="M28.1631 65.9265C28.3046 65.814 28.4493 65.6955 28.5908 65.5708C28.4493 65.6955 28.3077 65.814 28.1631 65.9265Z" fill="white"/>
</g>
<g id="Group_57">
<path id="Vector_48" d="M30.0723 64.0897C30.0934 64.0655 30.1146 64.0413 30.1357 64.0142C30.1146 64.0413 30.0934 64.0655 30.0723 64.0897Z" fill="white"/>
</g>
</g>
<g id="Group_58">
<g id="Group_59">
<path id="Vector_49" d="M26.5273 56.541C26.6324 56.5348 26.7344 56.5286 26.8394 56.5225C26.7344 56.5286 26.6324 56.5348 26.5273 56.541Z" fill="white"/>
</g>
<g id="Group_60">
<path id="Vector_50" d="M26.5029 56.5449C26.5093 56.5449 26.5158 56.5449 26.5254 56.5449C26.519 56.5417 26.5093 56.5417 26.5029 56.5449Z" fill="white"/>
</g>
</g>
<g id="Group_61">
<g id="Group_62">
<path id="Vector_51" d="M78.8419 45.6056C76.8247 41.9079 73.6268 41.1538 73.6268 41.1538C71.5481 43.696 72.815 48.3789 72.815 48.3789C67.2986 46.974 61.7391 51.9154 65.5982 59.9099C65.5982 59.9099 65.6412 53.3538 72.7289 54.1322C83.8017 55.3486 80.3271 75.6281 63.5872 75.6281C51.8686 75.6281 44.8147 67.2353 40.2054 62.6467C39.2276 64.3313 38.0468 65.8365 37.1613 66.8704C40.5252 72.3501 35.5869 77.6351 30.584 75.3605C33.0439 79.5204 37.2289 81.3115 39.9933 79.3471C44.7286 75.9809 42.0719 71.231 42.0719 71.231C68.8822 92.8516 88.9307 70.4799 82.335 54.415C82.1689 54.0106 82.1013 53.6031 82.0275 53.2352C81.9045 52.7943 81.8368 52.329 81.8368 51.8485C81.8368 48.9932 84.1769 46.6821 87.0611 46.6821C88.2358 46.6821 89.3212 47.0653 90.1945 47.713C89.1675 42.285 81.3633 41.1538 78.8419 45.6056Z" fill="white"/>
</g>
</g>
<g id="Group_63">
<g id="Group_64">
<path id="Vector_52" d="M31.5791 62.119C31.7022 61.9366 31.8222 61.7511 31.9453 61.5626C31.9361 61.5565 31.9299 61.5534 31.9207 61.5474C31.7145 61.8971 31.5822 62.116 31.5791 62.119Z" fill="white"/>
</g>
<g id="Group_65">
<path id="Vector_53" d="M77.3099 24.4192C76.1968 23.9722 74.9576 23.7137 73.6477 23.6681C70.4375 23.5586 66.7875 24.7324 63.4451 27.5787C62.8055 28.123 62.1782 28.7281 61.5663 29.3971C61.4956 29.4731 61.4218 29.5491 61.348 29.6252C61.0866 29.911 59.0356 32.1704 57.3106 34.4784C57.3137 34.4814 57.3137 34.4814 57.3168 34.4845C54.0297 38.9515 51.17 44.0754 48.7316 48.9408C48.7316 48.9408 46.453 42.2326 42.9538 38.5896C38.532 33.9827 38.735 26.3532 46.3577 29.4883C46.3577 29.4883 41.9145 22.3484 35.7308 28.6734C35.7308 28.6734 24.4397 24.7202 22.8807 36.2634C33.7598 25.374 39.4238 41.2018 34.7806 55.433C34.4731 56.3818 34.1287 57.2788 33.7567 58.1272C33.2032 59.3892 32.5913 60.5356 31.9394 61.5634C31.8195 61.7519 31.6965 61.9374 31.5735 62.1199L31.4843 62.2506C31.143 62.7463 30.7955 63.2116 30.4419 63.6434C30.3896 63.7072 30.3374 63.7711 30.2851 63.8319C30.2666 63.8532 30.2482 63.8745 30.2297 63.8957C30.1959 63.9353 30.1621 63.9778 30.1252 64.0174C30.1037 64.0417 30.0821 64.066 30.0606 64.0934C30.0299 64.1299 29.9991 64.1633 29.9684 64.1998C29.9438 64.2272 29.9222 64.2515 29.8976 64.2789C29.8669 64.3123 29.8392 64.3428 29.8085 64.3762C29.7839 64.4036 29.7593 64.4279 29.7347 64.4553C29.707 64.4857 29.6793 64.5161 29.6486 64.5465C29.624 64.5739 29.5994 64.6012 29.5717 64.6286C29.544 64.656 29.5164 64.6864 29.4887 64.7137C29.4641 64.7411 29.4364 64.7685 29.4087 64.7958C29.3811 64.8232 29.3565 64.8506 29.3288 64.8779C29.3011 64.9053 29.2765 64.9327 29.2488 64.957C29.2242 64.9813 29.1966 65.0087 29.1689 65.033C29.1412 65.0604 29.1135 65.0878 29.0859 65.1121C29.0613 65.1364 29.0367 65.1608 29.0121 65.1851C28.9844 65.2124 28.9536 65.2398 28.926 65.2672C28.9044 65.2885 28.8798 65.3097 28.8583 65.331C28.8276 65.3584 28.7968 65.3888 28.7661 65.4162C28.7476 65.4344 28.7261 65.4527 28.7076 65.4679C28.6738 65.4983 28.64 65.5287 28.6062 65.5591C28.597 65.5652 28.5908 65.5713 28.5816 65.5804C28.4401 65.7051 28.2956 65.8237 28.1542 65.9362C28.148 65.9392 28.1449 65.9453 28.1388 65.9483C28.0957 65.9818 28.0558 66.0152 28.0127 66.0456C28.0004 66.0548 27.9912 66.0639 27.9789 66.073C27.9389 66.1034 27.8989 66.1338 27.859 66.1642C27.8467 66.1734 27.8344 66.1825 27.8221 66.1916C27.7821 66.222 27.7421 66.2494 27.7021 66.2798C27.6898 66.2889 27.6775 66.298 27.6652 66.3072C27.6253 66.3345 27.5853 66.3649 27.5453 66.3923C27.533 66.4014 27.5207 66.4105 27.5084 66.4166C27.4685 66.444 27.4285 66.4714 27.3885 66.4987C27.3762 66.5048 27.367 66.5139 27.3547 66.52C27.3147 66.5474 27.2717 66.5747 27.2286 66.6021C27.2194 66.6082 27.2102 66.6143 27.2009 66.6204C27.1579 66.6477 27.1148 66.6751 27.0687 66.7025C27.0626 66.7055 27.0564 66.7085 27.0503 66.7116C27.0041 66.739 26.958 66.7694 26.9088 66.7967C26.4537 67.0643 26.0079 67.2772 25.5712 67.4292C25.0977 67.6573 24.5657 67.785 24.003 67.785C22.0258 67.785 20.4238 66.2007 20.4238 64.2454C20.4238 63.0413 21.0326 61.98 21.9582 61.3414C22.0412 61.2836 22.1273 61.2289 22.2165 61.1772C23.0713 60.639 26.6106 59.5169 30.2574 60.7971C31.2076 59.3861 31.6996 58.1941 31.9394 57.4552C29.4948 56.7071 24.907 55.8679 20.2147 57.9813C17.5334 59.0912 15.6484 61.7094 15.6484 64.7654C15.6484 66.5717 16.3065 68.2259 17.3981 69.5031C18.1053 70.3333 18.997 71.0053 20.0056 71.4584C21.2079 71.9571 22.607 72.1547 24.1106 72.0422C27.8805 71.7625 32.2961 69.5305 35.8261 65.1851C36.7916 63.9991 37.6895 62.6551 38.489 61.1498C40.6445 57.0994 42.099 51.8813 42.2404 45.4346C42.2404 45.4346 47.4862 51.7384 49.076 60.566C49.076 60.566 52.2677 50.3882 55.2873 45.5715C54.946 50.1145 55.3519 55.1715 57.0308 59.8453C57.1815 60.563 57.3168 61.1073 57.4305 61.3749C59.2909 65.7932 57.5074 70.5552 51.9172 69.6278C51.9172 69.6278 59.2017 74.2347 62.0029 67.6086C62.0029 67.6086 68.5126 70.2025 71.9227 66.146C75.3328 62.0895 74.1182 57.887 71.9688 56.3483C71.9688 56.3483 73.6508 62.0074 68.4449 63.7832C64.8411 65.0087 58.1009 61.0312 59.5953 46.3773C59.7767 44.5984 60.1641 42.8408 60.7053 41.1592C60.9236 40.3838 61.2373 39.5688 61.6032 38.766C61.7416 38.4589 61.8892 38.1518 62.0398 37.8477C62.827 36.2695 63.7188 34.8311 64.2907 33.9523C64.6013 33.4779 64.8165 33.1678 64.8688 33.0948C64.878 33.0826 64.8811 33.0766 64.8811 33.0766C65.3485 32.4501 65.8343 31.8511 66.3355 31.2916C68.491 28.9957 70.4006 27.5422 72.0887 27.2016C72.3901 27.1317 72.7006 27.0921 73.0235 27.0921C75.262 27.0921 77.0762 28.8862 77.0762 31.1C77.0762 31.7933 76.8979 32.444 76.5843 33.0127C75.7663 34.6304 73.5093 35.8468 69.4904 35.4788C69.4904 35.4788 68.6448 35.3815 67.4087 35.0592C66.9782 34.9467 66.4954 34.8038 65.9881 34.6304C65.1148 35.6491 64.3153 37.2304 63.7095 38.6261C63.8664 38.69 64.0263 38.7538 64.1861 38.8177C64.9334 39.137 66.4462 39.6935 68.368 39.952C70.5881 40.25 73.3525 40.1466 76.1076 38.8086C77.0824 38.3342 78.0202 37.7048 78.8535 36.9658C79.1733 36.683 79.4778 36.382 79.7637 36.0688C80.8891 34.7551 81.5687 33.0553 81.5687 31.2003C81.5933 28.2172 79.8467 25.6416 77.3099 24.4192Z" fill="white"/>
</g>
<g id="Group_66">
<path id="Vector_54" d="M31.4873 62.2483L31.5764 62.1177C31.5488 62.1602 31.518 62.2027 31.4873 62.2483Z" fill="white"/>
</g>
</g>
</g>
</g>
</svg>
