<svg width="100" height="27" viewBox="0 0 100 27" fill="none" xmlns="http://www.w3.org/2000/svg">
<g id="Group">
<g id="Group_2">
<g id="Group_3">
<path id="Vector" d="M16.4476 12.6667C16.4214 9.75507 18.8317 8.33854 18.9419 8.27259C17.5768 6.2824 15.4611 6.01047 14.7176 5.98879C12.9406 5.80179 11.2169 7.0521 10.3117 7.0521C9.38841 7.0521 7.99446 6.00686 6.4921 6.03758C4.55882 6.06739 2.75021 7.1867 1.75828 8.92485C-0.288829 12.4689 1.23792 17.677 3.1992 20.5417C4.1803 21.9447 5.32672 23.5112 6.82727 23.4561C8.29529 23.3955 8.84366 22.5201 10.6152 22.5201C12.3705 22.5201 12.8855 23.4561 14.4158 23.4208C15.9914 23.3955 16.9833 22.0115 17.9301 20.5959C19.0638 18.9878 19.5192 17.4042 19.5372 17.3229C19.5002 17.3102 16.4774 16.1566 16.4476 12.6667Z" fill="white"/>
<path id="Vector_2" d="M13.5569 4.10416C14.3465 3.11675 14.8867 1.77339 14.7368 0.410156C13.594 0.460747 12.1648 1.20063 11.3418 2.16637C10.6136 3.01737 9.96319 4.41222 10.1312 5.72396C11.415 5.81972 12.733 5.07622 13.5569 4.10416Z" fill="white"/>
</g>
</g>
<g id="Group_4">
<path id="Vector_3" d="M37.6927 23.2549H35.6411L34.5172 19.7235H30.6109L29.5404 23.2549H27.543L31.4131 11.2324H33.8035L37.6927 23.2549ZM34.1785 18.2419L33.1621 15.1026C33.0546 14.7819 32.8532 14.0266 32.5559 12.8378H32.5198C32.4015 13.3491 32.2108 14.1043 31.9489 15.1026L30.9506 18.2419H34.1785Z" fill="white"/>
<path id="Vector_4" d="M47.6452 18.8151C47.6452 20.2894 47.2468 21.4548 46.45 22.3103C45.7363 23.0719 44.8501 23.4522 43.7922 23.4522C42.6503 23.4522 41.83 23.0421 41.3304 22.2218H41.2943V26.7885H39.3682V17.441C39.3682 16.5141 39.3439 15.5628 39.2969 14.5872H40.9908L41.0983 15.9612H41.1344C41.7767 14.9259 42.7515 14.4092 44.0596 14.4092C45.0823 14.4092 45.936 14.813 46.6189 15.6215C47.3037 16.431 47.6452 17.4952 47.6452 18.8151ZM45.683 18.8855C45.683 18.0418 45.4933 17.3461 45.1121 16.7987C44.6956 16.2277 44.1364 15.9423 43.4354 15.9423C42.9602 15.9423 42.5283 16.1013 42.1426 16.4147C41.7559 16.7309 41.503 17.1438 41.3846 17.6551C41.325 17.8936 41.2952 18.0887 41.2952 18.2423V19.6878C41.2952 20.3183 41.4885 20.8504 41.8752 21.285C42.2618 21.7195 42.7641 21.9363 43.3821 21.9363C44.1075 21.9363 44.6721 21.6563 45.0759 21.098C45.4807 20.5388 45.683 19.8016 45.683 18.8855Z" fill="white"/>
<path id="Vector_5" d="M57.616 18.8151C57.616 20.2894 57.2176 21.4548 56.4199 22.3103C55.7071 23.0719 54.8209 23.4522 53.763 23.4522C52.6211 23.4522 51.8008 23.0421 51.3021 22.2218H51.266V26.7885H49.3399V17.441C49.3399 16.5141 49.3155 15.5628 49.2686 14.5872H50.9624L51.0699 15.9612H51.1061C51.7475 14.9259 52.7223 14.4092 54.0313 14.4092C55.053 14.4092 55.9068 14.813 56.5915 15.6215C57.2736 16.431 57.616 17.4952 57.616 18.8151ZM55.6538 18.8855C55.6538 18.0418 55.4632 17.3461 55.0819 16.7987C54.6655 16.2277 54.1081 15.9423 53.4061 15.9423C52.93 15.9423 52.4991 16.1013 52.1125 16.4147C51.7258 16.7309 51.4738 17.1438 51.3554 17.6551C51.2967 17.8936 51.266 18.0887 51.266 18.2423V19.6878C51.266 20.3183 51.4593 20.8504 51.8442 21.285C52.2308 21.7186 52.7331 21.9363 53.3528 21.9363C54.0783 21.9363 54.6429 21.6563 55.0467 21.098C55.4514 20.5388 55.6538 19.8016 55.6538 18.8855Z" fill="white"/>
<path id="Vector_6" d="M68.7642 19.8838C68.7642 20.9064 68.4091 21.7385 67.6963 22.3808C66.9131 23.0827 65.8227 23.4332 64.4215 23.4332C63.1278 23.4332 62.0907 23.1839 61.3057 22.6843L61.7519 21.079C62.5975 21.5903 63.5253 21.8469 64.5362 21.8469C65.2617 21.8469 65.8263 21.6824 66.2319 21.3554C66.6357 21.0284 66.8372 20.5893 66.8372 20.0419C66.8372 19.554 66.671 19.143 66.3376 18.8096C66.0061 18.4763 65.4523 18.1664 64.679 17.88C62.574 17.095 61.5225 15.9449 61.5225 14.4327C61.5225 13.4443 61.8911 12.634 62.6292 12.0034C63.3645 11.3719 64.3456 11.0566 65.5724 11.0566C66.6664 11.0566 67.5753 11.2473 68.3007 11.6276L67.8192 13.1977C67.1416 12.8291 66.3756 12.6448 65.5182 12.6448C64.8407 12.6448 64.3113 12.812 63.9319 13.1444C63.6111 13.4416 63.4503 13.8039 63.4503 14.233C63.4503 14.7082 63.6337 15.1012 64.0023 15.4101C64.323 15.6956 64.9057 16.0046 65.7513 16.3379C66.7857 16.7544 67.5455 17.2413 68.0342 17.7996C68.5211 18.3561 68.7642 19.0526 68.7642 19.8838Z" fill="white"/>
<path id="Vector_7" d="M75.132 16.0313H73.009V20.2402C73.009 21.3107 73.383 21.8456 74.1329 21.8456C74.477 21.8456 74.7625 21.8157 74.9884 21.7561L75.0417 23.2187C74.6622 23.3606 74.1627 23.4319 73.5438 23.4319C72.7832 23.4319 72.1887 23.1997 71.7596 22.7363C71.3323 22.272 71.1173 21.4932 71.1173 20.3992V16.0295H69.8525V14.584H71.1173V12.9967L73.009 12.4258V14.584H75.132V16.0313Z" fill="white"/>
<path id="Vector_8" d="M84.7108 18.8504C84.7108 20.1829 84.3296 21.2769 83.5689 22.1324C82.7712 23.0133 81.7124 23.4523 80.3925 23.4523C79.1206 23.4523 78.1078 23.0304 77.3526 22.1866C76.5973 21.3429 76.2197 20.2778 76.2197 18.994C76.2197 17.6507 76.6082 16.5503 77.3878 15.6948C78.1657 14.8384 79.2154 14.4102 80.5353 14.4102C81.8073 14.4102 82.8308 14.832 83.6032 15.6767C84.3422 16.4961 84.7108 17.554 84.7108 18.8504ZM82.7125 18.9127C82.7125 18.1132 82.5417 17.4275 82.1957 16.8557C81.7919 16.1637 81.2146 15.8186 80.4666 15.8186C79.6924 15.8186 79.1043 16.1646 78.7005 16.8557C78.3545 17.4284 78.1837 18.1249 78.1837 18.9488C78.1837 19.7484 78.3545 20.434 78.7005 21.005C79.1169 21.697 79.6987 22.0421 80.4494 22.0421C81.1848 22.0421 81.7621 21.6898 82.1786 20.9869C82.5336 20.4042 82.7125 19.7113 82.7125 18.9127Z" fill="white"/>
<path id="Vector_9" d="M90.9721 16.281C90.7814 16.2458 90.5782 16.2277 90.365 16.2277C89.6874 16.2277 89.1634 16.4834 88.7948 16.9956C88.4741 17.4473 88.3133 18.0183 88.3133 18.7076V23.2562H86.3882L86.4063 17.3172C86.4063 16.3181 86.3819 15.4083 86.334 14.5881H88.0116L88.0821 16.2467H88.1354C88.3386 15.6767 88.6593 15.2177 89.0984 14.8735C89.5275 14.5637 89.991 14.4092 90.4905 14.4092C90.6685 14.4092 90.8293 14.4218 90.9721 14.4444V16.281Z" fill="white"/>
<path id="Vector_10" d="M99.5851 18.5102C99.5851 18.8553 99.5625 19.1462 99.5146 19.3838H93.7364C93.759 20.2402 94.0382 20.8952 94.5748 21.3469C95.0617 21.7507 95.6914 21.9531 96.4647 21.9531C97.3203 21.9531 98.1008 21.8167 98.8027 21.5429L99.1045 22.88C98.2842 23.2377 97.3157 23.4157 96.1982 23.4157C94.854 23.4157 93.7988 23.02 93.0309 22.2295C92.2648 21.439 91.8809 20.3775 91.8809 19.0459C91.8809 17.7387 92.2377 16.6501 92.9523 15.7819C93.7003 14.855 94.7112 14.3916 95.9832 14.3916C97.2326 14.3916 98.1785 14.855 98.8208 15.7819C99.3294 16.5182 99.5851 17.4288 99.5851 18.5102ZM97.7485 18.0106C97.7611 17.4397 97.6355 16.9464 97.3745 16.53C97.0411 15.9942 96.5289 15.7268 95.8396 15.7268C95.2099 15.7268 94.6977 15.9879 94.3065 16.5119C93.9858 16.9284 93.7952 17.4279 93.7364 18.0097H97.7485V18.0106Z" fill="white"/>
</g>
<g id="&#208;&#148;&#208;&#190;&#209;&#129;&#209;&#130;&#209;&#131;&#208;&#191;&#208;&#189;&#208;&#190; &#208;&#178;">
<path d="M34.4878 8.30615H33.4852V6.81048H29.4786V8.30615H28.4592L28.4258 5.96656H28.9146C29.1569 5.7326 29.3505 5.3928 29.4953 4.94716C29.6401 4.49874 29.7334 3.99183 29.7752 3.42643L29.934 0.727539H33.7692V5.96656H34.5421L34.4878 8.30615ZM30.1095 5.96656H32.7164V1.57982H30.9408L30.8406 3.29274C30.7654 4.43746 30.5217 5.32874 30.1095 5.96656Z" fill="white"/>
<path d="M35.4755 4.50849C35.4755 4.06564 35.5632 3.66735 35.7387 3.31362C35.9142 2.95712 36.1606 2.68416 36.4782 2.49477C36.7957 2.30259 37.1605 2.2065 37.5728 2.2065C38.1827 2.2065 38.6771 2.40285 39.0559 2.79557C39.4375 3.18829 39.6436 3.70913 39.6742 4.35809L39.6784 4.59622C39.6784 5.04186 39.592 5.44015 39.4194 5.79109C39.2495 6.14203 39.0044 6.41359 38.6841 6.60577C38.3665 6.79795 37.9989 6.89404 37.5811 6.89404C36.9433 6.89404 36.4322 6.68236 36.0478 6.25901C35.6663 5.83287 35.4755 5.26607 35.4755 4.55862V4.50849ZM36.4907 4.59622C36.4907 5.06136 36.5868 5.42622 36.779 5.69082C36.9711 5.95263 37.2385 6.08354 37.5811 6.08354C37.9237 6.08354 38.1897 5.94984 38.3791 5.68246C38.5713 5.41508 38.6673 5.02376 38.6673 4.50849C38.6673 4.05171 38.5685 3.68963 38.3707 3.42225C38.1758 3.15487 37.9098 3.02118 37.5728 3.02118C37.2413 3.02118 36.9781 3.15347 36.7831 3.41807C36.5882 3.67988 36.4907 4.0726 36.4907 4.59622Z" fill="white"/>
<path d="M42.8218 6.08354C43.0753 6.08354 43.2855 6.00973 43.4527 5.86211C43.6198 5.71449 43.7089 5.53206 43.72 5.31481H44.6768C44.6656 5.59612 44.5779 5.85932 44.4136 6.10443C44.2492 6.34674 44.0264 6.53892 43.7451 6.68097C43.4638 6.82301 43.1602 6.89404 42.8343 6.89404C42.2021 6.89404 41.7007 6.68932 41.3303 6.27989C40.9599 5.87047 40.7747 5.30506 40.7747 4.58369V4.47924C40.7747 3.79129 40.9585 3.24121 41.3261 2.82899C41.6938 2.414 42.1951 2.2065 42.8302 2.2065C43.3677 2.2065 43.805 2.36386 44.142 2.67859C44.4818 2.99054 44.66 3.40136 44.6768 3.91106H43.72C43.7089 3.65203 43.6198 3.43896 43.4527 3.27185C43.2883 3.10473 43.078 3.02118 42.8218 3.02118C42.4931 3.02118 42.2397 3.14094 42.0614 3.38047C41.8832 3.61721 41.7927 3.9779 41.7899 4.46253V4.62547C41.7899 5.11567 41.8776 5.48193 42.0531 5.72424C42.2313 5.96377 42.4876 6.08354 42.8218 6.08354Z" fill="white"/>
<path d="M49.4286 3.09638H47.9622V6.81048H46.947V3.09638H45.4973V2.29005H49.4286V3.09638Z" fill="white"/>
<path d="M52.1668 5.35659L53.0859 2.29005H54.168L52.3715 7.49565C52.0958 8.25601 51.6279 8.6362 50.9678 8.6362C50.8201 8.6362 50.6572 8.61113 50.479 8.561V7.77556L50.6711 7.7881C50.9274 7.7881 51.1196 7.74075 51.2477 7.64605C51.3786 7.55414 51.4816 7.39816 51.5568 7.17813L51.7031 6.78959L50.1155 2.29005H51.2101L52.1668 5.35659Z" fill="white"/>
<path d="M59.016 6.81048H58.0007V3.10891H56.2377V6.81048H55.2225V2.29005H59.016V6.81048Z" fill="white"/>
<path d="M64.3527 6.81048H63.3375V4.98476H61.5786V6.81048H60.5634V2.29005H61.5786V4.17426H63.3375V2.29005H64.3527V6.81048Z" fill="white"/>
<path d="M65.6746 4.50849C65.6746 4.06564 65.7623 3.66735 65.9378 3.31362C66.1133 2.95712 66.3598 2.68416 66.6773 2.49477C66.9948 2.30259 67.3597 2.2065 67.7719 2.2065C68.3819 2.2065 68.8762 2.40285 69.255 2.79557C69.6366 3.18829 69.8427 3.70913 69.8733 4.35809L69.8775 4.59622C69.8775 5.04186 69.7912 5.44015 69.6185 5.79109C69.4486 6.14203 69.2035 6.41359 68.8832 6.60577C68.5657 6.79795 68.198 6.89404 67.7802 6.89404C67.1424 6.89404 66.6313 6.68236 66.247 6.25901C65.8654 5.83287 65.6746 5.26607 65.6746 4.55862V4.50849ZM66.6898 4.59622C66.6898 5.06136 66.7859 5.42622 66.9781 5.69082C67.1703 5.95263 67.4377 6.08354 67.7802 6.08354C68.1228 6.08354 68.3888 5.94984 68.5782 5.68246C68.7704 5.41508 68.8665 5.02376 68.8665 4.50849C68.8665 4.05171 68.7676 3.68963 68.5699 3.42225C68.3749 3.15487 68.1089 3.02118 67.7719 3.02118C67.4404 3.02118 67.1772 3.15347 66.9823 3.41807C66.7873 3.67988 66.6898 4.0726 66.6898 4.59622Z" fill="white"/>
<path d="M73.7997 6.81048V2.29005H75.6338C76.2521 2.29005 76.7228 2.39868 77.0459 2.61592C77.369 2.83039 77.5305 3.13955 77.5305 3.54341C77.5305 3.7523 77.465 3.9403 77.3341 4.10742C77.206 4.27174 77.0152 4.39847 76.7618 4.4876C77.057 4.54887 77.291 4.67282 77.4637 4.85943C77.6363 5.04604 77.7227 5.26607 77.7227 5.51953C77.7227 5.9401 77.5667 6.2604 77.2548 6.48043C76.9456 6.70046 76.5 6.81048 75.9179 6.81048H73.7997ZM74.8149 4.88449V6.00833H75.9262C76.447 6.00833 76.7075 5.82172 76.7075 5.4485C76.7075 5.0725 76.4429 4.88449 75.9137 4.88449H74.8149ZM74.8149 4.15755H75.6505C76.227 4.15755 76.5153 3.98765 76.5153 3.64785C76.5153 3.29134 76.2423 3.10752 75.6964 3.09638H74.8149V4.15755Z" fill="white"/>
</g>
</g>
</svg>
