<svg width="24" height="24" viewBox="0 0 24 24" fill="none" xmlns="http://www.w3.org/2000/svg">
<g id="Favorites">
<path id="Star (Stroke)" fill-rule="evenodd" clip-rule="evenodd" d="M10.9522 1.72685C11.3146 0.757717 12.6854 0.757716 13.0478 1.72685L15.353 7.89165L21.9284 8.17897C22.9621 8.22414 23.3857 9.52786 22.5759 10.172L17.4252 14.2694L19.1839 20.6117C19.4603 21.6088 18.3513 22.4145 17.4885 21.8435L12 18.211L6.5115 21.8435C5.64868 22.4145 4.53967 21.6088 4.81614 20.6117L6.5748 14.2694L1.42406 10.172C0.614344 9.52786 1.03795 8.22414 2.07163 8.17897L8.64704 7.89165L10.9522 1.72685ZM12 3.71561L10.0891 8.82607C9.93186 9.24651 9.53856 9.53226 9.09012 9.55186L3.63927 9.79004L7.9091 13.1867C8.26038 13.4661 8.41061 13.9284 8.29067 14.361L6.83279 19.6187L11.3826 16.6074C11.7569 16.3597 12.2431 16.3597 12.6174 16.6074L17.1672 19.6187L15.7093 14.361C15.5894 13.9285 15.7396 13.4661 16.0909 13.1867L20.3607 9.79004L14.9099 9.55186C14.4614 9.53226 14.0681 9.24651 13.9109 8.82607L12 3.71561Z" fill="#273142"/>
</g>
</svg>
