<svg width="111" height="27" viewBox="0 0 111 27" fill="none" xmlns="http://www.w3.org/2000/svg">
<g id="Group">
<path id="Vector" d="M55.6071 14.9342C54.8109 14.938 54.0337 15.1775 53.3736 15.6225C52.7134 16.0676 52.1999 16.6982 51.8978 17.4349C51.5957 18.1715 51.5186 18.9811 51.6762 19.7616C51.8338 20.542 52.2191 21.2582 52.7834 21.8199C53.3477 22.3815 54.0657 22.7634 54.8469 22.9174C55.628 23.0713 56.4373 22.9904 57.1725 22.6849C57.9077 22.3794 58.5359 21.8629 58.9779 21.2006C59.4198 20.5384 59.6557 19.76 59.6557 18.9639C59.6634 18.4309 59.5639 17.9019 59.3629 17.4083C59.1619 16.9146 58.8637 16.4665 58.4859 16.0905C58.1082 15.7145 57.6586 15.4184 57.1641 15.2197C56.6695 15.0211 56.14 14.924 55.6071 14.9342ZM55.6071 21.4101C55.1175 21.4443 54.6289 21.3305 54.2048 21.0833C53.7807 20.8362 53.4408 20.4672 53.2292 20.0243C53.0176 19.5814 52.9441 19.0851 53.0184 18.5999C53.0926 18.1147 53.3111 17.6631 53.6454 17.3037C53.9797 16.9443 54.4144 16.6938 54.8929 16.5847C55.3715 16.4757 55.8718 16.5131 56.3288 16.6922C56.7858 16.8712 57.1784 17.1836 57.4555 17.5888C57.7326 17.9939 57.8815 18.473 57.8827 18.9639C57.8979 19.2749 57.8508 19.5858 57.744 19.8783C57.6372 20.1708 57.4729 20.4389 57.2608 20.6669C57.0487 20.8949 56.7932 21.0781 56.5091 21.2057C56.2251 21.3334 55.9184 21.4029 55.6071 21.4101ZM46.7799 14.9342C45.9833 14.9361 45.2051 15.174 44.5437 15.6179C43.8823 16.0619 43.3673 16.6919 43.0637 17.4283C42.7602 18.1648 42.6817 18.9747 42.8383 19.7558C42.9948 20.5368 43.3794 21.254 43.9433 21.8166C44.5072 22.3792 45.2253 22.762 46.0067 22.9167C46.7881 23.0715 47.5978 22.9911 48.3336 22.6858C49.0694 22.3806 49.6981 21.8641 50.1405 21.2016C50.5829 20.5391 50.819 19.7604 50.819 18.9639C50.8267 18.4309 50.7271 17.9019 50.5262 17.4083C50.3252 16.9146 50.0269 16.4665 49.6492 16.0905C49.2714 15.7145 48.8219 15.4184 48.3273 15.2197C47.8327 15.0211 47.3033 14.924 46.7704 14.9342H46.7799ZM46.7799 21.4101C46.29 21.4463 45.8006 21.3341 45.3753 21.0882C44.95 20.8424 44.6087 20.4742 44.3956 20.0316C44.1825 19.589 44.1076 19.0925 44.1807 18.6067C44.2537 18.121 44.4713 17.6685 44.8052 17.3081C45.139 16.9477 45.5736 16.6962 46.0523 16.5863C46.5311 16.4764 47.0318 16.5131 47.4894 16.6918C47.947 16.8705 48.3402 17.1827 48.6178 17.588C48.8954 17.9932 49.0446 18.4726 49.0459 18.9639C49.0612 19.2749 49.014 19.5858 48.9072 19.8783C48.8004 20.1708 48.6362 20.4389 48.4241 20.6669C48.212 20.8949 47.9564 21.0781 47.6724 21.2057C47.3884 21.3334 47.0817 21.4029 46.7704 21.4101H46.7799ZM36.2649 16.1763V17.883H40.3609C40.2967 18.6868 39.9625 19.4453 39.4127 20.0353C39.003 20.4527 38.5103 20.7797 37.9665 20.9952C37.4228 21.2108 36.8399 21.3101 36.2554 21.2868C35.0484 21.2868 33.8908 20.8073 33.0373 19.9538C32.1838 19.1003 31.7043 17.9427 31.7043 16.7357C31.7043 15.5287 32.1838 14.3711 33.0373 13.5176C33.8908 12.6641 35.0484 12.1846 36.2554 12.1846C37.4101 12.1658 38.5251 12.6056 39.3559 13.4077L40.56 12.2036C39.9992 11.6356 39.33 11.1861 38.5922 10.8815C37.8544 10.577 37.063 10.4236 36.2649 10.4305C35.422 10.3977 34.5811 10.5354 33.7927 10.8354C33.0043 11.1353 32.2845 11.5913 31.6766 12.1761C31.0686 12.7608 30.5849 13.4623 30.2546 14.2385C29.9242 15.0146 29.7539 15.8495 29.7539 16.693C29.7539 17.5366 29.9242 18.3715 30.2546 19.1476C30.5849 19.9238 31.0686 20.6252 31.6766 21.21C32.2845 21.7948 33.0043 22.2508 33.7927 22.5507C34.5811 22.8507 35.422 22.9884 36.2649 22.9556C37.0765 22.9922 37.8865 22.8547 38.6404 22.5521C39.3944 22.2495 40.0748 21.789 40.6359 21.2015C41.6292 20.1101 42.1596 18.6754 42.115 17.2003C42.118 16.8409 42.0863 16.4821 42.0202 16.1289L36.2649 16.1763ZM79.2255 17.5037C78.9782 16.7762 78.5158 16.141 77.8995 15.6822C77.2832 15.2233 76.5421 14.9625 75.7742 14.9342C75.2556 14.9332 74.7423 15.0386 74.2659 15.2438C73.7896 15.4491 73.3605 15.7498 73.0051 16.1275C72.6496 16.5052 72.3754 16.9517 72.1993 17.4396C72.0233 17.9275 71.9492 18.4462 71.9816 18.9639C71.9701 19.4938 72.0655 20.0206 72.2622 20.5128C72.4588 21.0051 72.7526 21.4526 73.1261 21.8288C73.4996 22.2049 73.945 22.5019 74.4359 22.702C74.9267 22.9021 75.4528 23.0013 75.9828 22.9935C76.646 22.9971 77.2998 22.8361 77.8856 22.525C78.4713 22.2139 78.9708 21.7624 79.3393 21.211L77.9645 20.2628C77.7593 20.6049 77.4688 20.8878 77.1214 21.084C76.774 21.2801 76.3817 21.3826 75.9828 21.3816C75.5721 21.3973 75.1662 21.289 74.8179 21.0709C74.4695 20.8527 74.1949 20.5348 74.0296 20.1585L79.4246 17.9304L79.2255 17.5037ZM73.7262 18.8501C73.707 18.5568 73.7465 18.2627 73.8424 17.9848C73.9383 17.707 74.0886 17.4511 74.2847 17.2322C74.4807 17.0132 74.7184 16.8355 74.984 16.7096C75.2495 16.5836 75.5375 16.5119 75.8311 16.4987C76.137 16.4785 76.442 16.5486 76.7083 16.7004C76.9746 16.8521 77.1905 17.0787 77.3292 17.352L73.7262 18.8501ZM69.3458 22.7564H71.1188V10.9046H69.3458V22.7564ZM66.4445 15.835H66.3781C66.1109 15.5362 65.7835 15.2973 65.4175 15.1339C65.0515 14.9705 64.6551 14.8863 64.2542 14.8868C63.2181 14.9371 62.241 15.384 61.5254 16.1351C60.8099 16.8862 60.4108 17.8838 60.4108 18.9212C60.4108 19.9586 60.8099 20.9562 61.5254 21.7072C62.241 22.4583 63.2181 22.9053 64.2542 22.9556C64.656 22.9623 65.0544 22.8809 65.4213 22.7171C65.7883 22.5533 66.1149 22.311 66.3781 22.0074H66.435V22.5858C66.435 24.1313 65.6101 24.9562 64.2827 24.9562C63.8406 24.9458 63.4115 24.8041 63.0502 24.5492C62.6889 24.2942 62.4116 23.9375 62.2536 23.5245L60.7082 24.1692C60.9991 24.8768 61.4948 25.4815 62.1316 25.9055C62.7685 26.3295 63.5176 26.5536 64.2827 26.549C66.3591 26.549 68.0753 25.3259 68.0753 22.3487V15.1713H66.4445V15.835ZM64.4154 21.4101C63.8038 21.3562 63.2346 21.0751 62.8199 20.6223C62.4053 20.1695 62.1753 19.5778 62.1753 18.9639C62.1753 18.3499 62.4053 17.7582 62.8199 17.3054C63.2346 16.8526 63.8038 16.5715 64.4154 16.5176C64.7187 16.5332 65.0157 16.6093 65.2891 16.7414C65.5625 16.8736 65.8066 17.0591 66.0072 17.2871C66.2078 17.515 66.3607 17.7808 66.457 18.0688C66.5532 18.3568 66.5909 18.6611 66.5677 18.9639C66.5936 19.2679 66.5575 19.5741 66.4617 19.8638C66.3658 20.1535 66.2122 20.4208 66.0102 20.6495C65.8081 20.8781 65.5617 21.0634 65.286 21.1942C65.0103 21.3249 64.7109 21.3984 64.4059 21.4101H64.4154ZM87.5313 10.9046H83.293V22.7564H85.0661V18.2622H87.5408C88.0461 18.2985 88.5534 18.2303 89.0313 18.0619C89.5091 17.8935 89.947 17.6284 90.3179 17.2833C90.6887 16.9381 90.9845 16.5202 91.1867 16.0557C91.389 15.5912 91.4933 15.09 91.4933 14.5834C91.4933 14.0768 91.389 13.5756 91.1867 13.1111C90.9845 12.6466 90.6887 12.2287 90.3179 11.8836C89.947 11.5384 89.5091 11.2733 89.0313 11.1049C88.5534 10.9365 88.0461 10.8683 87.5408 10.9046H87.5313ZM87.5313 16.5935H85.0566V12.5544H87.5692C88.1086 12.5544 88.6259 12.7686 89.0073 13.1501C89.3887 13.5315 89.603 14.0488 89.603 14.5882C89.603 15.1275 89.3887 15.6448 89.0073 16.0263C88.6259 16.4077 88.1086 16.6219 87.5692 16.6219L87.5313 16.5935ZM98.4634 14.8868C97.8179 14.8482 97.1752 14.9991 96.6143 15.3208C96.0534 15.6425 95.5987 16.1211 95.3061 16.6978L96.88 17.352C97.0352 17.066 97.2702 16.8313 97.5564 16.6764C97.8425 16.5215 98.1676 16.4532 98.4919 16.4797C98.7169 16.4534 98.945 16.4722 99.1627 16.535C99.3805 16.5978 99.5835 16.7033 99.76 16.8454C99.9366 16.9875 100.083 17.1633 100.191 17.3626C100.299 17.5619 100.366 17.7807 100.388 18.0062V18.1295C99.8187 17.828 99.1836 17.6716 98.5393 17.6744C96.8421 17.6744 95.1259 18.6225 95.1259 20.3387C95.1427 20.7046 95.2326 21.0634 95.3905 21.394C95.5483 21.7246 95.7708 22.0201 96.0448 22.2632C96.3188 22.5063 96.6388 22.692 96.9858 22.8093C97.3329 22.9266 97.6999 22.9731 98.0652 22.9461C98.5117 22.9781 98.9586 22.8894 99.359 22.6892C99.7594 22.489 100.099 22.1847 100.341 21.8083H100.398V22.7564H102.104V18.1959C102.104 16.1194 100.53 14.9153 98.5108 14.9153L98.4634 14.8868ZM98.2453 21.3816C97.667 21.3816 96.8611 21.0877 96.8611 20.3766C96.8611 19.4285 97.8661 19.1156 98.7573 19.1156C99.3206 19.1017 99.8772 19.2392 100.369 19.5138C100.31 20.0271 100.067 20.5017 99.6855 20.8502C99.304 21.1986 98.8093 21.3975 98.2928 21.4101L98.2453 21.3816ZM108.324 15.1713L106.295 20.3102H106.238L104.133 15.1713H102.237L105.394 22.3582L103.593 26.3499H105.442L110.296 15.1713H108.324ZM92.3858 22.7564H94.1588V10.9046H92.3858V22.7564Z" fill="white"/>
<g id="Vector_2">
<path d="M30.9273 7.84305H30.2257V5.94675H30.823C31.0954 5.65813 31.3011 5.31324 31.4256 4.93644C31.5501 4.55963 31.5904 4.16009 31.5436 3.76601V0.950011H35.3362V5.93727H35.9715V7.83357H35.2698V6.6389H30.9273V7.84305ZM32.2452 3.79446C32.2895 4.55927 32.1011 5.31955 31.7048 5.9752H34.5492V1.65164H32.2452V3.79446ZM41.6414 5.89934C41.0871 6.45055 40.3372 6.75995 39.5555 6.75995C38.7737 6.75995 38.0238 6.45055 37.4695 5.89934C36.9308 5.32905 36.6306 4.57425 36.6306 3.78972C36.6306 3.00518 36.9308 2.25037 37.4695 1.68009C37.7427 1.40488 38.0677 1.18646 38.4257 1.0374C38.7837 0.888349 39.1677 0.811612 39.5555 0.811612C39.9432 0.811612 40.3272 0.888349 40.6852 1.0374C41.0432 1.18646 41.3682 1.40488 41.6414 1.68009C42.1823 2.24929 42.4839 3.0045 42.4839 3.78972C42.4839 4.57493 42.1823 5.33014 41.6414 5.89934ZM38.01 5.42527C38.4205 5.83404 38.9762 6.06354 39.5555 6.06354C40.1348 6.06354 40.6905 5.83404 41.1009 5.42527C41.506 4.97871 41.7304 4.39737 41.7304 3.79446C41.7304 3.19154 41.506 2.6102 41.1009 2.16364C40.6905 1.75487 40.1348 1.52537 39.5555 1.52537C38.9762 1.52537 38.4205 1.75487 38.01 2.16364C37.6049 2.6102 37.3805 3.19154 37.3805 3.79446C37.3805 4.39737 37.6049 4.97871 38.01 5.42527ZM46.164 6.76216C45.7726 6.76994 45.3837 6.69842 45.0206 6.55192C44.6576 6.40541 44.3279 6.18694 44.0516 5.90967C43.7752 5.63239 43.5578 5.30205 43.4124 4.93854C43.2671 4.57502 43.1968 4.18585 43.2058 3.79446C43.1968 3.40306 43.2671 3.01389 43.4124 2.65037C43.5578 2.28686 43.7752 1.95652 44.0516 1.67924C44.3279 1.40197 44.6576 1.1835 45.0206 1.037C45.3837 0.890487 45.7726 0.818971 46.164 0.826752C46.5608 0.816928 46.9546 0.897138 47.3159 1.06136C47.6771 1.22558 47.9965 1.46953 48.25 1.7749L47.738 2.26794C47.5507 2.03019 47.3092 1.84071 47.0338 1.71535C46.7583 1.58999 46.4568 1.53238 46.1546 1.54734C45.8635 1.53978 45.574 1.59134 45.3035 1.6989C45.0329 1.80646 44.787 1.96779 44.5806 2.17312C44.1695 2.62235 43.9415 3.20922 43.9415 3.81816C43.9415 4.4271 44.1695 5.01397 44.5806 5.4632C44.787 5.66853 45.0329 5.82986 45.3035 5.93742C45.574 6.04498 45.8635 6.09654 46.1546 6.08897C46.4883 6.08599 46.8172 6.00872 47.1173 5.86275C47.4174 5.71679 47.6813 5.5058 47.8897 5.24512L48.4017 5.75712C48.1436 6.07013 47.8199 6.3226 47.4535 6.49668C47.0488 6.67998 46.6083 6.77068 46.164 6.76216ZM51.3789 6.6389H50.6488V1.65164H49.0559V0.950011H52.9623V1.65164H51.3789V6.6389ZM57.9875 0.950011L55.8352 5.74764C55.749 6.03144 55.5768 6.28149 55.3425 6.46322C55.1081 6.64496 54.823 6.74941 54.5267 6.76216C54.3307 6.75967 54.1373 6.71775 53.9578 6.6389L54.1475 5.96572C54.2627 6.03281 54.3934 6.06876 54.5267 6.07001C54.6661 6.08051 54.8053 6.04737 54.9249 5.9752C55.0392 5.8785 55.1272 5.75459 55.1809 5.6149L55.3895 5.15979L53.4932 0.959492H54.356L55.7593 4.22112L57.1246 0.950011H57.9875ZM58.8123 6.6389V0.950011H62.9273V6.6389H62.1972V1.65164H59.5424V6.6389H58.8123ZM64.2263 6.6389V0.950011H64.9563V3.38675H67.8008V0.950011H68.5309V6.6389H67.8008V4.06942H64.9563V6.6389H64.2263ZM74.4947 5.89934C73.9404 6.45055 73.1905 6.75995 72.4088 6.75995C71.6271 6.75995 70.8772 6.45055 70.3229 5.89934C69.7841 5.32905 69.4839 4.57425 69.4839 3.78972C69.4839 3.00518 69.7841 2.25037 70.3229 1.68009C70.5961 1.40488 70.921 1.18646 71.279 1.0374C71.637 0.888349 72.021 0.811612 72.4088 0.811612C72.7966 0.811612 73.1805 0.888349 73.5385 1.0374C73.8965 1.18646 74.2215 1.40488 74.4947 1.68009C75.0356 2.24929 75.3372 3.0045 75.3372 3.78972C75.3372 4.57493 75.0356 5.33014 74.4947 5.89934ZM70.8633 5.42527C71.2738 5.83404 71.8295 6.06354 72.4088 6.06354C72.9881 6.06354 73.5438 5.83404 73.9543 5.42527C74.3594 4.97871 74.5837 4.39737 74.5837 3.79446C74.5837 3.19154 74.3594 2.6102 73.9543 2.16364C73.5438 1.75487 72.9881 1.52537 72.4088 1.52537C71.8295 1.52537 71.2738 1.75487 70.8633 2.16364C70.4582 2.6102 70.2338 3.19154 70.2338 3.79446C70.2338 4.39737 70.4582 4.97871 70.8633 5.42527ZM78.3158 6.6389V0.950011H80.3732C80.8004 0.941943 81.2145 1.09805 81.53 1.38616C81.6884 1.52365 81.8147 1.69429 81.8999 1.88598C81.9851 2.07768 82.0271 2.28576 82.023 2.49549C82.0275 2.74823 81.9547 2.99631 81.8144 3.2066C81.6752 3.41086 81.4814 3.57186 81.255 3.6712C81.53 3.76224 81.7712 3.93406 81.9472 4.16423C82.1295 4.39653 82.2265 4.68437 82.2221 4.97964C82.227 5.19822 82.1836 5.41518 82.0951 5.6151C82.0066 5.81503 81.8752 5.993 81.7101 6.13638C81.38 6.44091 80.9456 6.6072 80.4965 6.60097L78.3158 6.6389ZM79.0458 3.38675H80.3732C80.4972 3.39193 80.6208 3.37001 80.7354 3.32252C80.8501 3.27503 80.9529 3.20312 81.0369 3.11179C81.1209 3.03567 81.1886 2.94342 81.2362 2.84055C81.2837 2.73768 81.31 2.62629 81.3135 2.51302C81.3171 2.39976 81.2978 2.28695 81.2568 2.18131C81.2158 2.07567 81.1539 1.97937 81.0749 1.89816C80.9956 1.80853 80.8977 1.73744 80.7879 1.68992C80.6781 1.6424 80.5592 1.61962 80.4396 1.62319H79.0838L79.0458 3.38675ZM79.0458 5.93727H80.5155C80.6439 5.94158 80.7717 5.91746 80.8897 5.86665C81.0077 5.81584 81.113 5.73959 81.1981 5.64334C81.3653 5.46995 81.4602 5.23944 81.4636 4.9986C81.4636 4.74714 81.3637 4.50597 81.1859 4.32816C81.0081 4.15035 80.7669 4.05046 80.5155 4.05046H79.0743L79.0458 5.93727Z" fill="white"/>
<path fill-rule="evenodd" clip-rule="evenodd" d="M39.5555 0.906427C39.1802 0.906427 38.8086 0.980688 38.4621 1.12493C38.1161 1.26903 37.8019 1.48011 37.5376 1.74605C37.016 2.29864 36.7254 3.02979 36.7254 3.78972C36.7254 4.54954 37.0159 5.28059 37.5374 5.83315C38.0739 6.36604 38.7993 6.66514 39.5555 6.66514C40.3117 6.66514 41.0371 6.36601 41.5736 5.83307C42.0971 5.2816 42.3891 4.55018 42.3891 3.78972C42.3891 3.02916 42.0971 2.29764 41.5734 1.74615C41.3091 1.48017 40.9949 1.26905 40.6488 1.12493C40.3023 0.980688 39.9307 0.906427 39.5555 0.906427ZM38.3893 0.949871C38.7588 0.796009 39.1552 0.716797 39.5555 0.716797C39.9558 0.716797 40.3521 0.796009 40.7216 0.949871C41.0912 1.10373 41.4266 1.3292 41.7087 1.61329L41.7101 1.61476C42.2678 2.20158 42.5787 2.98019 42.5787 3.78972C42.5787 4.59924 42.2678 5.37783 41.7101 5.96466L41.7083 5.9666C41.1362 6.53547 40.3622 6.85477 39.5555 6.85477C38.7487 6.85477 37.9747 6.53544 37.4027 5.96657L37.4006 5.96449C36.8452 5.3766 36.5358 4.59846 36.5358 3.78972C36.5358 2.98097 36.8452 2.20286 37.4006 1.61497L37.4022 1.61327C37.6842 1.32918 38.0197 1.10373 38.3893 0.949871ZM72.4088 0.906427C72.0335 0.906427 71.6619 0.980688 71.3155 1.12493C70.9694 1.26902 70.6552 1.48009 70.391 1.746C69.8694 2.2986 69.5788 3.02977 69.5788 3.78972C69.5788 4.54955 69.8693 5.2806 70.3908 5.83316C70.9272 6.36604 71.6526 6.66514 72.4088 6.66514C73.165 6.66514 73.8905 6.36598 74.427 5.83301C74.9505 5.28155 75.2424 4.55015 75.2424 3.78972C75.2424 3.02917 74.9504 2.29766 74.4267 1.74617C74.1625 1.48018 73.8482 1.26905 73.5021 1.12493C73.1556 0.980688 72.7841 0.906427 72.4088 0.906427ZM71.2426 0.949871C71.6121 0.796009 72.0085 0.716797 72.4088 0.716797C72.8091 0.716797 73.2054 0.796009 73.575 0.949871C73.9445 1.10373 74.28 1.3292 74.562 1.61329L74.5635 1.61476C75.1211 2.20159 75.432 2.98019 75.432 3.78972C75.432 4.59924 75.1211 5.37783 74.5634 5.96466L74.5616 5.9666C73.9895 6.53547 73.2155 6.85477 72.4088 6.85477C71.602 6.85477 70.8281 6.53544 70.256 5.96657L70.2539 5.96449C69.6985 5.3766 69.3891 4.59846 69.3891 3.78972C69.3891 2.98097 69.6986 2.20286 70.2539 1.61497L70.2556 1.61327C70.5376 1.32918 70.873 1.10373 71.2426 0.949871ZM47.2766 1.14767C46.9284 0.989383 46.5488 0.912069 46.1664 0.921538L46.1622 0.921643C45.7835 0.914116 45.4073 0.9832 45.0561 1.12492C44.7049 1.26664 44.3861 1.47797 44.1187 1.74618C43.8514 2.01439 43.641 2.33394 43.5005 2.68557C43.3599 3.03721 43.2919 3.41367 43.3006 3.79227L43.3007 3.79665C43.292 4.17525 43.3599 4.5517 43.5005 4.90334C43.641 5.25497 43.8514 5.57452 44.1187 5.84273C44.3861 6.11094 44.7049 6.32227 45.0561 6.46399C45.4073 6.60571 45.7835 6.67489 46.1622 6.66736L46.164 6.76216L46.1659 6.66736C46.5957 6.67561 47.0219 6.58792 47.4136 6.41068C47.7412 6.25489 48.0335 6.03419 48.2727 5.76228L47.8959 5.3854C47.6904 5.61993 47.4398 5.81133 47.1588 5.94802C46.8462 6.10002 46.5037 6.18056 46.1562 6.18378C45.8526 6.19156 45.5506 6.13772 45.2684 6.02553C44.986 5.91323 44.7292 5.74479 44.5138 5.53041L44.5106 5.52728C44.0835 5.06057 43.8467 4.45079 43.8467 3.81816C43.8467 3.18553 44.0836 2.57582 44.5107 2.10911L44.5137 2.10583C44.7292 1.89145 44.986 1.72309 45.2684 1.61079C45.5498 1.49893 45.8508 1.44509 46.1535 1.45247C46.4696 1.43739 46.7849 1.49792 47.0731 1.62905C47.3305 1.74623 47.5597 1.91676 47.7457 2.1289L48.1197 1.76875C47.8852 1.50548 47.5981 1.29382 47.2766 1.14767ZM46.1641 6.85699C45.7605 6.86476 45.3595 6.79091 44.9851 6.63984C44.6102 6.48854 44.2698 6.26294 43.9844 5.9766C43.699 5.69027 43.4745 5.34913 43.3244 4.97374C43.1745 4.59902 43.102 4.1979 43.111 3.79446C43.102 3.39101 43.1745 2.98989 43.3244 2.61517C43.4745 2.23978 43.699 1.89864 43.9844 1.61231C44.2698 1.32597 44.6102 1.10037 44.9851 0.94907C45.3594 0.798038 45.7603 0.724179 46.1638 0.731915C46.5742 0.722074 46.9814 0.805185 47.3551 0.97504C47.7294 1.14519 48.0603 1.39795 48.3229 1.71434L48.3792 1.78211L47.7283 2.40888L47.6635 2.32661C47.4856 2.10074 47.2562 1.92074 46.9945 1.80165C46.7328 1.68256 46.4464 1.62783 46.1593 1.64204L46.1521 1.6424C45.8739 1.63517 45.5971 1.68418 45.3385 1.787C45.0806 1.88955 44.8461 2.04323 44.6491 2.23877C44.2549 2.67031 44.0364 3.23366 44.0364 3.81816C44.0364 4.40266 44.2549 4.96601 44.6491 5.39755C44.8461 5.59309 45.0806 5.74676 45.3385 5.84931C45.5971 5.95214 45.8739 6.00142 46.1521 5.99419L46.1537 5.99416C46.4734 5.99131 46.7884 5.91729 47.0758 5.77749C47.3633 5.63768 47.616 5.4356 47.8156 5.18592L47.8818 5.10315L48.5296 5.75098L48.4748 5.81744C48.2079 6.14116 47.8732 6.40228 47.4942 6.58232L47.4927 6.58306C47.0756 6.77193 46.6218 6.8655 46.1641 6.85699ZM81.466 1.45617C81.1684 1.18443 80.778 1.0372 80.375 1.04481L80.3732 1.04483H78.4106V6.54242L80.4948 6.50617L80.4978 6.50617C80.9226 6.51206 81.3335 6.35476 81.6458 6.06669L81.6479 6.06477C81.8025 5.93052 81.9256 5.76392 82.0084 5.57673C82.0913 5.38954 82.1319 5.18639 82.1273 4.98174L82.1273 4.97822C82.1314 4.70466 82.0415 4.43799 81.8726 4.22277L81.8718 4.22181C81.7075 4.00677 81.4822 3.84626 81.2252 3.76121L80.9908 3.68361L81.2169 3.58438C81.4268 3.49226 81.6066 3.34301 81.7358 3.15366C81.8652 2.95949 81.9323 2.73048 81.9282 2.49716V2.49363C81.9321 2.29779 81.8928 2.10349 81.8133 1.92449C81.7337 1.74549 81.6158 1.58616 81.4678 1.45777L81.466 1.45617ZM81.5931 1.31537C81.26 1.01159 80.8231 0.846914 80.3724 0.855196H78.2209V6.73538L80.4952 6.69578L80.4967 6.6958C80.9691 6.70197 81.4259 6.52708 81.7734 6.20703C81.9484 6.05468 82.0879 5.8657 82.1818 5.65348C82.2757 5.44137 82.3218 5.21122 82.317 4.97932L82.3169 4.98106L82.2221 4.97964L82.3169 4.97754L82.317 4.97932C82.3213 4.66315 82.2172 4.355 82.0221 4.10615C81.8771 3.91658 81.6905 3.7642 81.4779 3.66002C81.6416 3.557 81.783 3.42104 81.8928 3.26L81.8933 3.25922C82.044 3.03336 82.1223 2.76699 82.1178 2.49556L82.1178 2.49735L82.023 2.49549L82.1178 2.49382L82.1178 2.49556C82.122 2.27254 82.0771 2.05132 81.9865 1.84747C81.8959 1.64347 81.7616 1.46183 81.5931 1.31537ZM31.4488 0.855196H35.431V5.84246H36.0663V7.92838H35.175V6.73372H31.0221V7.93786H30.1309V5.85194H30.7817C31.0308 5.57958 31.2196 5.25747 31.3356 4.90669C31.4557 4.54306 31.4946 4.15749 31.4494 3.77719L31.4488 3.77162V0.855196ZM31.6384 1.04483V3.76045C31.6858 4.16649 31.6439 4.57799 31.5156 4.96618C31.3867 5.35617 31.1739 5.71311 30.892 6.01183L30.8639 6.04157H30.3205V7.74823H30.8325V6.54409H35.3646V7.73875H35.8766V6.03209H35.2414V1.04483H31.6384ZM48.9611 0.855196H53.0571V1.74645H51.4737V6.73372H50.554V1.74645H48.9611V0.855196ZM49.1507 1.04483V1.55683H50.7436V6.54409H51.284V1.55683H52.8675V1.04483H49.1507ZM57.0615 0.855196H58.1339L55.9241 5.78104C55.8317 6.08122 55.6489 6.34563 55.4006 6.53815C55.1506 6.73192 54.8467 6.84329 54.5308 6.85689L54.5255 6.85711C54.3168 6.85446 54.1108 6.80967 53.9197 6.7257L53.8442 6.69254L54.0894 5.82218L54.1952 5.88378C54.2962 5.9426 54.4107 5.9741 54.5276 5.9752L54.5339 5.97526C54.6511 5.98409 54.7681 5.95719 54.8695 5.89784C54.9688 5.81217 55.0453 5.7033 55.0924 5.58086L55.0946 5.57532L55.2854 5.15949L53.3464 0.864677H54.4185L55.758 3.97814L57.0615 0.855196ZM57.1878 1.04483L55.7606 4.46411L54.2936 1.05431H53.6401L55.4937 5.16009L55.2683 5.65178C55.2088 5.80517 55.1118 5.94123 54.9862 6.04756L54.9804 6.05247L54.9739 6.05639C54.8383 6.13819 54.6807 6.17604 54.5227 6.16479C54.4144 6.16338 54.3076 6.14157 54.2079 6.10088L54.0721 6.58286C54.2171 6.63643 54.3703 6.66505 54.5253 6.66732C54.801 6.65491 55.0662 6.55745 55.2844 6.38829C55.5032 6.21859 55.664 5.98511 55.7444 5.7201L55.7462 5.71433L57.841 1.04483H57.1878ZM58.7175 0.855196H63.0221V6.73372H62.1024V1.74645H59.6372V6.73372H58.7175V0.855196ZM58.9072 1.04483V6.54409H59.4476V1.55683H62.292V6.54409H62.8325V1.04483H58.9072ZM64.1315 0.855196H65.0512V3.29194H67.706V0.855196H68.6257V6.73372H67.706V4.16423H65.0512V6.73372H64.1315V0.855196ZM64.3211 1.04483V6.54409H64.8615V3.9746H67.8956V6.54409H68.436V1.04483H67.8956V3.48157H64.8615V1.04483H64.3211ZM37.9431 2.09646C38.3713 1.66999 38.9511 1.43056 39.5555 1.43056C40.1598 1.43056 40.7396 1.66999 41.1678 2.09646L41.1713 2.09986C41.5922 2.56386 41.8252 3.16799 41.8252 3.79446C41.8252 4.42092 41.5921 5.02497 41.1712 5.48897L41.1679 5.49254C40.7397 5.919 40.1598 6.15835 39.5555 6.15835C38.9511 6.15835 38.3713 5.91892 37.9431 5.49245L38.01 5.42527L37.9397 5.48897C37.5188 5.02497 37.2857 4.42092 37.2857 3.79446C37.2857 3.16799 37.5188 2.56394 37.9397 2.09994L37.9431 2.09646ZM38.0786 5.35978C38.4711 5.74979 39.002 5.96872 39.5555 5.96872C40.1089 5.96872 40.6398 5.74979 41.0323 5.35978C41.4206 4.9309 41.6356 4.37302 41.6356 3.79446C41.6356 3.21589 41.4206 2.65801 41.0323 2.22913C40.6398 1.83912 40.1089 1.62019 39.5555 1.62019C39.002 1.62019 38.4711 1.83912 38.0786 2.22913C37.6903 2.65801 37.4753 3.21589 37.4753 3.79446C37.4753 4.37302 37.6903 4.9309 38.0786 5.35978ZM70.7964 2.09646C71.2247 1.66999 71.8044 1.43056 72.4088 1.43056C73.0132 1.43056 73.5929 1.66999 74.0212 2.09646L74.0246 2.09986C74.4455 2.56386 74.6786 3.16799 74.6786 3.79446C74.6786 4.42092 74.4454 5.02497 74.0245 5.48897L74.0213 5.49254C73.593 5.919 73.0132 6.15835 72.4088 6.15835C71.8044 6.15835 71.2247 5.91892 70.7964 5.49245L70.8633 5.42527L70.7931 5.48897C70.3722 5.02497 70.139 4.42092 70.139 3.79446C70.139 3.16799 70.3722 2.56394 70.7931 2.09994L70.7964 2.09646ZM70.9319 5.35979C71.3245 5.7498 71.8554 5.96872 72.4088 5.96872C72.9622 5.96872 73.4931 5.7498 73.8857 5.35979C74.2739 4.93091 74.4889 4.37302 74.4889 3.79446C74.4889 3.21589 74.2739 2.658 73.8857 2.22912C73.4931 1.83911 72.9622 1.62019 72.4088 1.62019C71.8554 1.62019 71.3245 1.83911 70.9319 2.22912C70.5437 2.658 70.3286 3.21589 70.3286 3.79446C70.3286 4.37302 70.5437 4.93091 70.9319 5.35979ZM80.4382 1.52838C80.5712 1.52462 80.7034 1.55006 80.8255 1.60291C80.9474 1.65566 81.0562 1.73444 81.1444 1.83371C81.2316 1.9237 81.2998 2.03022 81.3451 2.147C81.3908 2.2645 81.4122 2.39 81.4083 2.51599C81.4044 2.64197 81.3751 2.76588 81.3222 2.88031C81.27 2.99344 81.1957 3.09502 81.1038 3.17914C81.011 3.27911 80.8978 3.3579 80.7717 3.41011C80.645 3.46262 80.5084 3.48699 80.3713 3.48157H78.949L78.991 1.52838H80.4382ZM80.7502 1.77693C80.6532 1.73494 80.5481 1.71481 80.4424 1.71797L80.4396 1.71801H79.1766L79.1427 3.29194H80.3772C80.4874 3.29654 80.5973 3.27714 80.6991 3.23492C80.801 3.19271 80.8925 3.12879 80.9671 3.04761L80.9701 3.04444L80.9733 3.04155C81.0478 2.97398 81.1079 2.8921 81.1501 2.80079C81.1923 2.70948 81.2156 2.6106 81.2188 2.51006C81.2219 2.40953 81.2048 2.30939 81.1684 2.21562C81.132 2.12185 81.0771 2.03637 81.0069 1.96428L81.0037 1.96103C80.9337 1.88183 80.8472 1.81893 80.7502 1.77693ZM32.1504 1.55683H34.644V6.07001H31.5367L31.6236 5.92615C32.01 5.2869 32.1937 4.54562 32.1506 3.79993L32.1503 3.79446L32.1504 1.55683ZM32.34 1.74645V3.79173C32.3816 4.51941 32.2177 5.24298 31.8687 5.88038H34.4544V1.74645H32.34ZM78.9809 3.95564H80.5155C80.7921 3.95564 81.0573 4.06552 81.2529 4.26112C81.4485 4.45671 81.5584 4.72199 81.5584 4.9986L81.5584 4.99994C81.5547 5.2642 81.4508 5.51717 81.2677 5.70774C81.1736 5.8137 81.0574 5.89769 80.9272 5.95374C80.7968 6.00986 80.6557 6.0366 80.5139 6.03209H78.9496L78.9809 3.95564ZM79.1677 4.14527L79.1421 5.84246H80.5186C80.6331 5.8463 80.747 5.82486 80.8522 5.77957C80.9574 5.73428 81.0512 5.66632 81.1271 5.58053L81.1298 5.57748C81.2801 5.42158 81.3656 5.21443 81.3688 4.99791C81.3686 4.77185 81.2787 4.55507 81.1189 4.39521C80.9588 4.23517 80.7418 4.14527 80.5155 4.14527H79.1677Z" fill="white"/>
</g>
<g id="Group_2">
<path id="Vector_3" d="M0.899507 1.4609C0.590472 1.83173 0.43449 2.30646 0.463357 2.78831V23.7614C0.43449 24.2432 0.590472 24.7179 0.899507 25.0888L0.965877 25.1551L12.7134 13.4171V13.1421L0.965877 1.39453L0.899507 1.4609Z" fill="url(#paint0_linear_6383_23)"/>
<path id="Vector_4" d="M16.6003 17.3329L12.7129 13.4171V13.1421L16.6003 9.2168L16.6856 9.26421L21.341 11.9095C22.6684 12.6586 22.6684 13.8912 21.341 14.6497L16.7046 17.2855L16.6003 17.3329Z" fill="url(#paint1_linear_6383_23)"/>
<path id="Vector_5" d="M16.7145 17.2766L12.7133 13.2754L0.899414 25.0893C1.16998 25.3272 1.51513 25.463 1.87523 25.4734C2.23532 25.4838 2.58774 25.3681 2.87156 25.1462L16.724 17.2766" fill="url(#paint2_linear_6383_23)"/>
<path id="Vector_6" d="M16.7142 9.27364L2.8618 1.40401C2.57797 1.18216 2.22556 1.06643 1.86546 1.07681C1.50537 1.0872 1.16021 1.22306 0.889648 1.4609L12.7131 13.2748L16.7142 9.27364Z" fill="url(#paint3_linear_6383_23)"/>
<path id="Vector_7" opacity="0.2" d="M16.6007 17.1904L2.86208 25.0126C2.58834 25.2173 2.25572 25.3279 1.91393 25.3279C1.57214 25.3279 1.23952 25.2173 0.965784 25.0126L0.899414 25.079L0.965784 25.1454C1.2389 25.3515 1.57176 25.463 1.91393 25.463C2.25611 25.463 2.58896 25.3515 2.86208 25.1454L16.7145 17.2758L16.6007 17.1904Z" fill="#273142"/>
<path id="Vector_8" opacity="0.12" d="M0.899507 24.9566C0.590472 24.5857 0.43449 24.111 0.463357 23.6292V23.7714C0.43449 24.2532 0.590472 24.728 0.899507 25.0988L0.965877 25.0324L0.899507 24.9566ZM21.3416 14.508L16.6008 17.1912L16.6862 17.2766L21.3416 14.6407C21.6057 14.5166 21.8325 14.3251 21.999 14.0854C22.1654 13.8456 22.2657 13.5663 22.2897 13.2754C22.2364 13.5396 22.1232 13.7882 21.9589 14.0018C21.7945 14.2155 21.5833 14.3887 21.3416 14.508Z" fill="#273142"/>
<path id="Vector_9" opacity="0.25" d="M2.86142 1.53726L21.3408 12.0427C21.5826 12.1621 21.7937 12.3352 21.9581 12.5489C22.1225 12.7626 22.2357 13.0111 22.289 13.2753C22.265 12.9845 22.1647 12.7051 21.9982 12.4654C21.8317 12.2257 21.605 12.0341 21.3408 11.91L2.86142 1.40452C1.53401 0.655479 0.453125 1.28126 0.453125 2.7983V2.94052C0.481569 1.414 1.5435 0.788221 2.86142 1.53726Z" fill="white"/>
</g>
</g>
<defs>
<linearGradient id="paint0_linear_6383_23" x1="11.6705" y1="2.57024" x2="-4.23946" y2="18.4802" gradientUnits="userSpaceOnUse">
<stop stop-color="#00A0FF"/>
<stop offset="0.01" stop-color="#00A1FF"/>
<stop offset="0.26" stop-color="#00BEFF"/>
<stop offset="0.51" stop-color="#00D2FF"/>
<stop offset="0.76" stop-color="#00DFFF"/>
<stop offset="1" stop-color="#00E3FF"/>
</linearGradient>
<linearGradient id="paint1_linear_6383_23" x1="23.0761" y1="13.2749" x2="0.140452" y2="13.2749" gradientUnits="userSpaceOnUse">
<stop stop-color="#FFE000"/>
<stop offset="0.41" stop-color="#FFBD00"/>
<stop offset="0.78" stop-color="#FFA500"/>
<stop offset="1" stop-color="#FF9C00"/>
</linearGradient>
<linearGradient id="paint2_linear_6383_23" x1="14.5433" y1="15.4561" x2="-7.03659" y2="37.0265" gradientUnits="userSpaceOnUse">
<stop stop-color="#FF3A44"/>
<stop offset="1" stop-color="#C31162"/>
</linearGradient>
<linearGradient id="paint3_linear_6383_23" x1="-2.07805" y1="-5.51747" x2="7.55513" y2="4.11572" gradientUnits="userSpaceOnUse">
<stop stop-color="#32A071"/>
<stop offset="0.07" stop-color="#2DA771"/>
<stop offset="0.48" stop-color="#15CF74"/>
<stop offset="0.8" stop-color="#06E775"/>
<stop offset="1" stop-color="#00F076"/>
</linearGradient>
</defs>
</svg>
