<svg width="35" height="35" viewBox="0 0 35 35" fill="none" xmlns="http://www.w3.org/2000/svg">
<g id="Instagram">
<ellipse id="Circle" cx="17.5003" cy="17.5003" rx="14.5833" ry="14.5833" fill="#8D909B"/>
<g id="instagram icon">
<g id="Group">
<path id="Vector" d="M17.5 10.3266C19.8363 10.3266 20.1131 10.3355 21.0358 10.3776C21.8889 10.4165 22.3522 10.559 22.6605 10.6789C23.0689 10.8376 23.3604 11.0272 23.6666 11.3334C23.9728 11.6396 24.1624 11.9311 24.3211 12.3395C24.441 12.6478 24.5835 13.1111 24.6224 13.9642C24.6645 14.8869 24.6734 15.1636 24.6734 17.5C24.6734 19.8363 24.6645 20.1131 24.6224 21.0357C24.5835 21.8888 24.441 22.3521 24.3211 22.6605C24.1624 23.0689 23.9728 23.3604 23.6666 23.6665C23.3604 23.9727 23.0689 24.1623 22.6605 24.3211C22.3522 24.4409 21.8889 24.5834 21.0358 24.6223C20.1132 24.6644 19.8365 24.6734 17.5 24.6734C15.1635 24.6734 14.8868 24.6644 13.9643 24.6223C13.1111 24.5834 12.6478 24.4409 12.3395 24.3211C11.9311 24.1623 11.6396 23.9727 11.3334 23.6665C11.0272 23.3604 10.8376 23.0689 10.6789 22.6605C10.559 22.3521 10.4165 21.8888 10.3776 21.0357C10.3355 20.1131 10.3266 19.8363 10.3266 17.5C10.3266 15.1636 10.3355 14.8869 10.3776 13.9642C10.4165 13.1111 10.559 12.6478 10.6789 12.3395C10.8376 11.9311 11.0272 11.6396 11.3334 11.3334C11.6396 11.0272 11.9311 10.8376 12.3395 10.6789C12.6478 10.559 13.1111 10.4165 13.9643 10.3776C14.8869 10.3355 15.1637 10.3266 17.5 10.3266ZM17.5 8.75C15.1236 8.75 14.8257 8.76007 13.8924 8.80266C12.9611 8.84513 12.325 8.99306 11.7684 9.20934C11.193 9.43296 10.7051 9.73215 10.2186 10.2186C9.73215 10.7051 9.43296 11.193 9.20938 11.7684C8.99306 12.325 8.84513 12.961 8.80266 13.8924C8.76007 14.8256 8.75 15.1236 8.75 17.5C8.75 19.8763 8.76007 20.1743 8.80266 21.1076C8.84513 22.0389 8.99306 22.675 9.20938 23.2315C9.43296 23.8069 9.73215 24.2949 10.2186 24.7814C10.7051 25.2678 11.193 25.567 11.7684 25.7906C12.325 26.0069 12.9611 26.1548 13.8924 26.1973C14.8257 26.2399 15.1236 26.2499 17.5 26.2499C19.8764 26.2499 20.1743 26.2399 21.1076 26.1973C22.039 26.1548 22.675 26.0069 23.2316 25.7906C23.807 25.567 24.2949 25.2678 24.7814 24.7814C25.2679 24.2949 25.567 23.8069 25.7907 23.2315C26.0069 22.675 26.1549 22.0389 26.1973 21.1076C26.2399 20.1743 26.25 19.8763 26.25 17.5C26.25 15.1236 26.2399 14.8256 26.1973 13.8924C26.1549 12.961 26.0069 12.325 25.7907 11.7684C25.567 11.193 25.2679 10.7051 24.7814 10.2186C24.2949 9.73215 23.807 9.43296 23.2316 9.20934C22.675 8.99306 22.039 8.84513 21.1076 8.80266C20.1743 8.76007 19.8764 8.75 17.5 8.75Z" fill="white"/>
</g>
<g id="Group_2">
<path id="Vector_2" d="M17.504 13.0107C15.0224 13.0107 13.0107 15.0224 13.0107 17.5039C13.0107 19.9855 15.0224 21.9972 17.504 21.9972C19.9855 21.9972 21.9972 19.9855 21.9972 17.5039C21.9972 15.0224 19.9855 13.0107 17.504 13.0107ZM17.504 20.4206C15.8931 20.4206 14.5873 19.1148 14.5873 17.5039C14.5873 15.8931 15.8931 14.5873 17.504 14.5873C19.1148 14.5873 20.4207 15.8931 20.4207 17.5039C20.4207 19.1148 19.1148 20.4206 17.504 20.4206Z" fill="white"/>
</g>
<g id="Group_3">
<path id="Vector_3" d="M23.225 12.8303C23.225 13.4102 22.7549 13.8803 22.175 13.8803C21.5951 13.8803 21.125 13.4102 21.125 12.8303C21.125 12.2504 21.5951 11.7803 22.175 11.7803C22.7549 11.7803 23.225 12.2504 23.225 12.8303Z" fill="white"/>
</g>
</g>
</g>
</svg>
