<svg width="158" height="50" viewBox="0 0 158 50" fill="none" xmlns="http://www.w3.org/2000/svg">
<g id="Group 53">
<g id="Group">
<g id="Group_2">
<g id="Group_3" opacity="0.5">
<g id="Group_4" opacity="0.5">
<path id="Vector" opacity="0.5" d="M52.8998 6.08203C52.8138 6.08203 52.7301 6.08439 52.6465 6.08676C53.6645 6.1222 54.6275 6.32308 55.4926 6.67046C54.7088 6.29472 53.8294 6.08203 52.8998 6.08203Z" fill="#EA9400"/>
</g>
</g>
<g id="Group_5" opacity="0.5">
<g id="Group_6" opacity="0.5">
<path id="Vector_2" opacity="0.5" d="M57.4169 15.7227C57.1945 15.9661 56.9577 16.2 56.709 16.4198C56.9649 16.2095 57.2016 15.9755 57.4169 15.7227Z" fill="#EA9400"/>
</g>
</g>
</g>
<g id="Group_7">
<g id="Group_8">
<path id="Vector_3" d="M42.6074 19.6792C42.8131 19.0435 43.0451 18.4219 43.3058 17.8193C43.0212 18.4432 42.7772 19.0765 42.6074 19.6792Z" fill="#EA9400"/>
</g>
<g id="Group_9">
<path id="Vector_4" d="M45.8507 13.4004C45.8507 13.4004 45.8482 13.4053 45.8408 13.4153C45.8433 13.4103 45.8482 13.4053 45.8507 13.4004Z" fill="#EA9400"/>
</g>
</g>
<g id="Group_10">
<g id="Group_11">
<path id="Vector_5" d="M38.6286 0.71164C35.6224 2.89285 37.398 7.04023 37.398 7.04023C16.565 -9.76433 2.17219 7.21511 6.10794 20.1062C6.20591 20.4324 6.28955 20.7372 6.3469 21.0232C6.44249 21.3658 6.49506 21.7274 6.49506 22.1008C6.49506 24.3174 4.67654 26.1158 2.43505 26.1158C1.5222 26.1158 0.678659 25.8181 0 25.3147C0.798142 29.533 6.86306 30.4097 8.82257 26.95C10.3902 29.8236 12.8754 30.4097 12.8754 30.4097C14.4908 28.4341 13.5063 24.7948 13.5063 24.7948C17.7957 25.8842 22.1138 22.0464 19.1148 15.8336C19.1148 15.8336 19.0789 20.9286 13.5732 20.3213C4.97046 19.376 7.66837 3.61599 20.6776 3.61599C29.8753 3.61599 35.2377 9.85478 38.815 13.3948C38.815 13.3948 39.8521 11.8351 41.2883 10.6086C41.2094 10.4739 41.1354 10.3416 41.0685 10.2093C41.0637 10.1974 41.0565 10.188 41.0517 10.1785C38.5999 5.42146 41.8427 1.78925 46.3257 3.82867C44.4044 0.113756 40.7602 -0.836242 38.6286 0.71164Z" fill="#EA9400"/>
</g>
</g>
<g id="Group_12">
<g id="Group_13">
<path id="Vector_6" d="M8.94922 41.7075C9.47733 42.3857 10.1703 42.8938 10.9756 43.227C10.1918 42.8749 9.49884 42.3527 8.94922 41.7075Z" fill="#EA9400"/>
</g>
<g id="Group_14" opacity="0.5">
<g id="Group_15" opacity="0.5">
<path id="Vector_7" opacity="0.5" d="M10.9756 43.2275C11.7044 43.5537 12.5121 43.738 13.3628 43.738C13.6353 43.738 13.9029 43.7191 14.1658 43.6836C12.9996 43.7687 11.9099 43.6151 10.9756 43.2275Z" fill="#EA9400"/>
</g>
</g>
</g>
<g id="Group_16">
<g id="Group_17">
<path id="Vector_8" d="M17.6309 38.653C17.6352 38.6486 17.6418 38.6443 17.6484 38.6377C17.6418 38.6443 17.6374 38.6486 17.6309 38.653Z" fill="#EA9400"/>
</g>
<g id="Group_18">
<path id="Vector_9" d="M17.2871 38.9452C17.2922 38.9426 17.2972 38.9376 17.2997 38.9351C17.2972 38.9376 17.2922 38.9401 17.2871 38.9452Z" fill="#EA9400"/>
</g>
<g id="Group_19">
<path id="Vector_10" d="M17.165 39.0403C17.1745 39.0332 17.1816 39.0261 17.191 39.019C17.1816 39.0261 17.1721 39.0332 17.165 39.0403Z" fill="#EA9400"/>
</g>
<g id="Group_20">
<path id="Vector_11" d="M18.2139 38.1088C18.235 38.0877 18.2561 38.0665 18.2749 38.0454C18.2538 38.0665 18.235 38.0877 18.2139 38.1088Z" fill="#EA9400"/>
</g>
<g id="Group_21">
<path id="Vector_12" d="M17.8457 38.4641C17.8627 38.4471 17.8821 38.4301 17.8991 38.4131C17.8821 38.4301 17.8651 38.4471 17.8457 38.4641Z" fill="#EA9400"/>
</g>
<g id="Group_22">
<path id="Vector_13" d="M18.3389 37.9815C18.3601 37.9603 18.3813 37.9367 18.4025 37.9155C18.3813 37.9391 18.3601 37.9603 18.3389 37.9815Z" fill="#EA9400"/>
</g>
<g id="Group_23">
<path id="Vector_14" d="M17.9678 38.3478C17.9867 38.3289 18.0056 38.3099 18.0246 38.291C18.0056 38.3123 17.9867 38.3312 17.9678 38.3478Z" fill="#EA9400"/>
</g>
<g id="Group_24">
<path id="Vector_15" d="M16.4463 39.5372C16.4512 39.5347 16.4562 39.5323 16.4612 39.5298C16.4562 39.5323 16.4512 39.5347 16.4463 39.5372Z" fill="#EA9400"/>
</g>
<g id="Group_25">
<path id="Vector_16" d="M16.5605 39.4639C16.5671 39.4595 16.5737 39.4551 16.5803 39.4507C16.5737 39.4551 16.5671 39.4595 16.5605 39.4639Z" fill="#EA9400"/>
</g>
<g id="Group_26">
<path id="Vector_17" d="M16.7998 39.3061C16.8091 39.2992 16.8183 39.2922 16.8276 39.2876C16.8183 39.2922 16.8091 39.2992 16.7998 39.3061Z" fill="#EA9400"/>
</g>
<g id="Group_27">
<path id="Vector_18" d="M16.6797 39.3881C16.6868 39.3834 16.6962 39.3763 16.7057 39.3716C16.6962 39.3763 16.6868 39.381 16.6797 39.3881Z" fill="#EA9400"/>
</g>
<g id="Group_28">
<path id="Vector_19" d="M16.9189 39.22C16.9282 39.2131 16.9374 39.2062 16.9467 39.1992C16.9398 39.2062 16.9305 39.2131 16.9189 39.22Z" fill="#EA9400"/>
</g>
<g id="Group_29">
<path id="Vector_20" d="M17.041 39.1312C17.0503 39.1242 17.0595 39.1173 17.0688 39.1104C17.0618 39.1173 17.0526 39.1242 17.041 39.1312Z" fill="#EA9400"/>
</g>
<g id="Group_30">
<path id="Vector_21" d="M17.7285 38.5666C17.7447 38.5527 17.7585 38.5412 17.7723 38.5273C17.7585 38.5412 17.7447 38.5527 17.7285 38.5666Z" fill="#EA9400"/>
</g>
<g id="Group_31">
<path id="Vector_22" d="M18.1509 38.1689C18.1321 38.1877 18.111 38.2088 18.0898 38.2276C18.111 38.2088 18.1297 38.1901 18.1509 38.1689Z" fill="#EA9400"/>
</g>
<g id="Group_32">
<path id="Vector_23" d="M18.7061 37.5842C18.73 37.5579 18.7539 37.5292 18.7778 37.5005C18.7539 37.5268 18.73 37.5555 18.7061 37.5842Z" fill="#EA9400"/>
</g>
<g id="Group_33">
<path id="Vector_24" d="M18.585 37.7175C18.6084 37.6918 18.6295 37.6683 18.6529 37.6426C18.6295 37.6683 18.6084 37.6941 18.585 37.7175Z" fill="#EA9400"/>
</g>
<g id="Group_34">
<path id="Vector_25" d="M18.8311 37.4435C18.8576 37.4125 18.8865 37.3815 18.9131 37.3481C18.8841 37.3815 18.8576 37.4125 18.8311 37.4435Z" fill="#EA9400"/>
</g>
<g id="Group_35">
<path id="Vector_26" d="M18.46 37.8501C18.481 37.8266 18.5021 37.8032 18.5255 37.7798C18.5045 37.8055 18.4834 37.829 18.46 37.8501Z" fill="#EA9400"/>
</g>
<g id="Group_36">
<path id="Vector_27" d="M18.9521 37.3021C18.9932 37.2521 19.0342 37.2044 19.0752 37.1543C19.0342 37.2044 18.9932 37.2521 18.9521 37.3021Z" fill="#EA9400"/>
</g>
<g id="Group_37">
<path id="Vector_28" d="M16.7041 39.3708C16.7355 39.3491 16.7668 39.3274 16.7982 39.3057C16.7693 39.3274 16.7379 39.3491 16.7041 39.3708Z" fill="#EA9400"/>
</g>
<g id="Group_38">
<path id="Vector_29" d="M16.9502 39.2003C16.9816 39.1786 17.0129 39.1545 17.0443 39.1304C17.0129 39.1545 16.9816 39.1786 16.9502 39.2003Z" fill="#EA9400"/>
</g>
<g id="Group_39">
<path id="Vector_30" d="M18.2134 38.1094C18.1922 38.1305 18.1735 38.1516 18.1523 38.1704C18.1711 38.1493 18.1922 38.1282 18.2134 38.1094Z" fill="#EA9400"/>
</g>
<g id="Group_40">
<path id="Vector_31" d="M16.8281 39.2878C16.8595 39.2661 16.8909 39.2443 16.9222 39.2202C16.8884 39.2443 16.8571 39.2661 16.8281 39.2878Z" fill="#EA9400"/>
</g>
<g id="Group_41">
<path id="Vector_32" d="M16.3369 39.603C16.3727 39.5815 16.4085 39.5576 16.4467 39.5361C16.4109 39.5576 16.3751 39.5815 16.3369 39.603Z" fill="#EA9400"/>
</g>
<g id="Group_42">
<path id="Vector_33" d="M18.4033 37.9149C18.4221 37.8938 18.4432 37.8727 18.462 37.8516C18.4409 37.8727 18.4221 37.8938 18.4033 37.9149Z" fill="#EA9400"/>
</g>
<g id="Group_43">
<path id="Vector_34" d="M15.2988 40.0951C15.636 39.9769 15.9828 39.8115 16.3368 39.6035C15.9828 39.8115 15.636 39.9769 15.2988 40.0951Z" fill="#EA9400"/>
</g>
<g id="Group_44">
<path id="Vector_35" d="M16.4609 39.5308C16.4944 39.5093 16.5278 39.4878 16.5636 39.4663C16.5278 39.4878 16.4944 39.5093 16.4609 39.5308Z" fill="#EA9400"/>
</g>
<g id="Group_45">
<path id="Vector_36" d="M16.582 39.4526C16.6131 39.4312 16.6465 39.4097 16.6799 39.3882C16.6465 39.4097 16.6131 39.4312 16.582 39.4526Z" fill="#EA9400"/>
</g>
<g id="Group_46">
<path id="Vector_37" d="M17.9014 38.4113C17.9226 38.3901 17.9461 38.3689 17.9674 38.3477C17.9461 38.3689 17.9226 38.3901 17.9014 38.4113Z" fill="#EA9400"/>
</g>
<g id="Group_47">
<path id="Vector_38" d="M18.6543 37.644C18.6731 37.6229 18.6895 37.6041 18.7083 37.583C18.6895 37.6041 18.6707 37.6252 18.6543 37.644Z" fill="#EA9400"/>
</g>
<g id="Group_48">
<path id="Vector_39" d="M18.0254 38.2939C18.0465 38.2728 18.0676 38.2517 18.0888 38.2329C18.0676 38.2517 18.0465 38.2728 18.0254 38.2939Z" fill="#EA9400"/>
</g>
<g id="Group_49">
<path id="Vector_40" d="M18.5273 37.7798C18.5461 37.7586 18.5649 37.7399 18.5837 37.7188C18.5649 37.7399 18.5461 37.761 18.5273 37.7798Z" fill="#EA9400"/>
</g>
<g id="Group_50">
<path id="Vector_41" d="M18.2764 38.0448C18.2975 38.0237 18.3163 38.0026 18.3374 37.9814C18.3163 38.0026 18.2975 38.0237 18.2764 38.0448Z" fill="#EA9400"/>
</g>
<g id="Group_51">
<path id="Vector_42" d="M17.7744 38.5275C17.7978 38.5064 17.8213 38.4853 17.8447 38.4619C17.8213 38.483 17.7978 38.5064 17.7744 38.5275Z" fill="#EA9400"/>
</g>
<g id="Group_52">
<path id="Vector_43" d="M17.6504 38.6381C17.6758 38.615 17.7012 38.5919 17.7266 38.5688C17.7012 38.5919 17.6758 38.615 17.6504 38.6381Z" fill="#EA9400"/>
</g>
<g id="Group_53">
<path id="Vector_44" d="M17.0723 39.1114C17.1036 39.0873 17.135 39.0632 17.1664 39.0391C17.135 39.0656 17.1036 39.0873 17.0723 39.1114Z" fill="#EA9400"/>
</g>
<g id="Group_54">
<path id="Vector_45" d="M17.1914 39.0193C17.2224 38.993 17.2559 38.9691 17.2893 38.9429C17.2559 38.9691 17.2224 38.993 17.1914 39.0193Z" fill="#EA9400"/>
</g>
<g id="Group_55">
<path id="Vector_46" d="M18.9092 37.3497C18.9232 37.3334 18.9371 37.3171 18.9511 37.3008C18.9371 37.3171 18.9232 37.3334 18.9092 37.3497Z" fill="#EA9400"/>
</g>
<g id="Group_56">
<path id="Vector_47" d="M17.2988 38.9308C17.4088 38.8433 17.5212 38.7512 17.6313 38.6543C17.5212 38.7512 17.4112 38.8433 17.2988 38.9308Z" fill="#EA9400"/>
</g>
<g id="Group_57">
<path id="Vector_48" d="M18.7803 37.5015C18.7967 37.4828 18.8131 37.464 18.8296 37.4429C18.8131 37.464 18.7967 37.4828 18.7803 37.5015Z" fill="#EA9400"/>
</g>
</g>
<g id="Group_58">
<g id="Group_59">
<path id="Vector_49" d="M16.0273 31.6355C16.109 31.6307 16.1882 31.6259 16.2699 31.6211C16.1882 31.6259 16.109 31.6307 16.0273 31.6355Z" fill="#EA9400"/>
</g>
<g id="Group_60">
<path id="Vector_50" d="M16.0107 31.6371C16.0157 31.6371 16.0207 31.6371 16.0282 31.6371C16.0232 31.6346 16.0157 31.6346 16.0107 31.6371Z" fill="#EA9400"/>
</g>
</g>
<g id="Group_61">
<g id="Group_62">
<path id="Vector_51" d="M56.6799 23.1379C55.1122 20.2643 52.627 19.6782 52.627 19.6782C51.0116 21.6538 51.9962 25.2931 51.9962 25.2931C47.7091 24.2013 43.3886 28.0415 46.3877 34.2543C46.3877 34.2543 46.4211 29.1593 51.9292 29.7643C60.5344 30.7095 57.8341 46.4696 44.8248 46.4696C35.7179 46.4696 30.236 39.9472 26.654 36.3812C25.8941 37.6904 24.9764 38.8601 24.2882 39.6636C26.9025 43.9221 23.0647 48.0293 19.1768 46.2616C21.0885 49.4944 24.3408 50.8864 26.4891 49.3597C30.1691 46.7437 28.1045 43.0524 28.1045 43.0524C48.9398 59.8546 64.5203 42.4687 59.3945 29.984C59.2655 29.6697 59.2129 29.3531 59.1555 29.0671C59.0599 28.7245 59.0074 28.3629 59.0074 27.9895C59.0074 25.7705 60.8259 23.9745 63.0674 23.9745C63.9802 23.9745 64.8238 24.2722 65.5024 24.7756C64.7043 20.5573 58.6394 19.6782 56.6799 23.1379Z" fill="#EA9400"/>
</g>
</g>
<g id="Group_63">
<g id="Group_64">
<path id="Vector_52" d="M19.9531 35.9702C20.0488 35.8284 20.1421 35.6842 20.2377 35.5377C20.2305 35.533 20.2258 35.5306 20.2186 35.5259C20.0584 35.7976 19.9555 35.9678 19.9531 35.9702Z" fill="#EA9400"/>
</g>
<g id="Group_65">
<path id="Vector_53" d="M55.4918 6.67262C54.6268 6.32523 53.6637 6.12436 52.6458 6.08892C50.151 6.00384 47.3145 6.91603 44.7169 9.12796C44.2199 9.55097 43.7324 10.0212 43.2569 10.5411C43.2019 10.6002 43.1445 10.6593 43.0872 10.7184C42.8841 10.9405 41.2902 12.6964 39.9496 14.49C39.952 14.4924 39.952 14.4924 39.9544 14.4947C37.3998 17.9662 35.1775 21.9482 33.2825 25.7293C33.2825 25.7293 31.5117 20.5161 28.7923 17.685C25.356 14.1048 25.5137 8.1756 31.4377 10.612C31.4377 10.612 27.9846 5.0633 23.179 9.97871C23.179 9.97871 14.4043 6.90658 13.1927 15.8772C21.6473 7.41466 26.049 19.715 22.4406 30.7747C22.2017 31.512 21.934 32.2091 21.6449 32.8684C21.2148 33.8492 20.7392 34.7401 20.2326 35.5388C20.1394 35.6854 20.0438 35.8295 19.9482 35.9713L19.8789 36.0729C19.6137 36.4581 19.3437 36.8197 19.0689 37.1553C19.0282 37.2049 18.9876 37.2545 18.947 37.3018C18.9326 37.3183 18.9183 37.3349 18.904 37.3514C18.8777 37.3821 18.8514 37.4152 18.8227 37.4459C18.806 37.4648 18.7893 37.4837 18.7725 37.505C18.7486 37.5334 18.7247 37.5594 18.7008 37.5877C18.6817 37.609 18.665 37.6279 18.6459 37.6492C18.622 37.6752 18.6005 37.6988 18.5766 37.7248C18.5575 37.746 18.5383 37.7649 18.5192 37.7862C18.4977 37.8098 18.4762 37.8335 18.4523 37.8571C18.4332 37.8784 18.4141 37.8997 18.3926 37.9209C18.3711 37.9422 18.3496 37.9658 18.3281 37.9871C18.3089 38.0084 18.2874 38.0296 18.2659 38.0509C18.2444 38.0722 18.2253 38.0934 18.2038 38.1147C18.1823 38.136 18.1632 38.1572 18.1417 38.1761C18.1226 38.1951 18.101 38.2163 18.0795 38.2352C18.058 38.2565 18.0365 38.2778 18.015 38.2967C17.9959 38.3156 17.9768 38.3345 17.9577 38.3534C17.9362 38.3747 17.9123 38.3959 17.8908 38.4172C17.874 38.4337 17.8549 38.4503 17.8382 38.4668C17.8143 38.4881 17.7904 38.5117 17.7665 38.533C17.7522 38.5472 17.7354 38.5613 17.7211 38.5732C17.6948 38.5968 17.6685 38.6204 17.6422 38.6441C17.6351 38.6488 17.6303 38.6535 17.6231 38.6606C17.5132 38.7575 17.4009 38.8496 17.291 38.9371C17.2862 38.9394 17.2838 38.9442 17.279 38.9465C17.2456 38.9725 17.2145 38.9985 17.181 39.0222C17.1715 39.0293 17.1643 39.0363 17.1547 39.0434C17.1237 39.0671 17.0926 39.0907 17.0616 39.1143C17.052 39.1214 17.0424 39.1285 17.0329 39.1356C17.0018 39.1592 16.9707 39.1805 16.9397 39.2041C16.9301 39.2112 16.9206 39.2183 16.911 39.2254C16.8799 39.2467 16.8489 39.2703 16.8178 39.2916C16.8082 39.2986 16.7987 39.3057 16.7891 39.3105C16.7581 39.3317 16.727 39.353 16.6959 39.3743C16.6864 39.379 16.6792 39.3861 16.6696 39.3908C16.6386 39.4121 16.6051 39.4334 16.5717 39.4546C16.5645 39.4593 16.5573 39.4641 16.5502 39.4688C16.5167 39.4901 16.4833 39.5113 16.4474 39.5326C16.4426 39.535 16.4379 39.5373 16.4331 39.5397C16.3972 39.561 16.3614 39.5846 16.3232 39.6059C15.9695 39.8138 15.623 39.9792 15.2837 40.0974C14.9156 40.2746 14.5022 40.3739 14.0649 40.3739C12.5284 40.3739 11.2834 39.1427 11.2834 37.6232C11.2834 36.6873 11.7565 35.8626 12.4758 35.3663C12.5403 35.3214 12.6072 35.2789 12.6765 35.2387C13.3409 34.8204 16.0914 33.9484 18.9255 34.9433C19.6639 33.8468 20.0462 32.9204 20.2326 32.3462C18.3328 31.7648 14.7675 31.1126 11.1209 32.755C9.03712 33.6176 7.57227 35.6523 7.57227 38.0273C7.57227 39.431 8.08365 40.7166 8.93197 41.7091C9.48159 42.3542 10.1746 42.8765 10.9584 43.2286C11.8927 43.6162 12.98 43.7698 14.1486 43.6824C17.0783 43.4649 20.5098 41.7304 23.2531 38.3534C24.0035 37.4317 24.7012 36.3872 25.3226 35.2174C26.9977 32.0697 28.128 28.0145 28.2379 23.0045C28.2379 23.0045 32.3147 27.9034 33.5501 34.7637C33.5501 34.7637 36.0306 26.8542 38.3772 23.1109C38.1119 26.6415 38.4274 30.5714 39.7321 34.2036C39.8492 34.7614 39.9544 35.1844 40.0428 35.3923C41.4885 38.826 40.1025 42.5268 35.7581 41.806C35.7581 41.806 41.4192 45.3862 43.5962 40.2368C43.5962 40.2368 48.6551 42.2526 51.3052 39.1001C53.9553 35.9477 53.0114 32.6818 51.341 31.486C51.341 31.486 52.6482 35.8839 48.6025 37.264C45.8018 38.2163 40.5637 35.1253 41.7251 23.7371C41.8661 22.3547 42.1672 20.9888 42.5877 19.6819C42.7574 19.0793 43.0012 18.446 43.2855 17.8221C43.3931 17.5834 43.5078 17.3447 43.6249 17.1084C44.2366 15.8819 44.9296 14.7641 45.3741 14.0812C45.6154 13.7125 45.7827 13.4715 45.8233 13.4148C45.8305 13.4053 45.8329 13.4006 45.8329 13.4006C46.1961 12.9138 46.5737 12.4482 46.9632 12.0134C48.6383 10.2292 50.1223 9.0996 51.4342 8.83493C51.6684 8.78057 51.9098 8.74985 52.1607 8.74985C53.9003 8.74985 55.3102 10.1441 55.3102 11.8645C55.3102 12.4033 55.1716 12.909 54.9279 13.351C54.2922 14.6082 52.5382 15.5534 49.415 15.2675C49.415 15.2675 48.7578 15.1919 47.7972 14.9414C47.4626 14.8539 47.0874 14.7429 46.6932 14.6082C46.0145 15.3998 45.3932 16.6287 44.9224 17.7134C45.0443 17.763 45.1686 17.8126 45.2928 17.8623C45.8735 18.1104 47.0492 18.5429 48.5427 18.7437C50.2681 18.9753 52.4164 18.895 54.5575 17.8552C55.315 17.4865 56.0438 16.9973 56.6914 16.4231C56.94 16.2033 57.1765 15.9694 57.3988 15.726C58.2734 14.7051 58.8015 13.384 58.8015 11.9425C58.8206 9.62423 57.4633 7.62262 55.4918 6.67262Z" fill="#EA9400"/>
</g>
<g id="Group_66">
<path id="Vector_54" d="M19.8838 36.0712L19.953 35.9697C19.9315 36.0028 19.9077 36.0358 19.8838 36.0712Z" fill="#EA9400"/>
</g>
</g>
</g>
<g id="Group 1330">
<rect id="Rectangle 3" x="71.9258" y="28.4458" width="86.0556" height="12.933" fill="#32386B"/>
<g id="Shop">
<path d="M96.7105 33.0026L97.2912 31.7799C96.5707 31.3162 95.5705 31 94.5703 31C92.8817 31 91.7525 31.8221 91.7525 33.108C91.7525 35.7324 95.7963 34.8576 95.7963 36.3964C95.7963 36.9128 95.3123 37.2079 94.5057 37.2079C93.6991 37.2079 92.6774 36.7969 91.9031 36.1223L91.3008 37.3133C92.1074 38.0195 93.2797 38.4938 94.4842 38.4938C96.1405 38.4938 97.3665 37.6928 97.3665 36.3121C97.3773 33.6666 93.3335 34.4781 93.3335 32.9815C93.3335 32.5283 93.7744 32.2859 94.452 32.2859C95.0327 32.2859 95.9039 32.5283 96.7105 33.0026Z" fill="white"/>
<path d="M104.109 31.0632V38.4411H105.55V35.4478H109.304V38.4411H110.745V31.0632H109.304V34.2146H105.55V31.0632H104.109Z" fill="white"/>
<path d="M121.403 31.0211C119.134 31.0211 117.392 32.6231 117.392 34.7522C117.392 36.8707 119.134 38.5043 121.403 38.5043C123.673 38.5043 125.415 36.8707 125.415 34.7522C125.415 32.6337 123.673 31.0211 121.403 31.0211ZM121.425 32.2859C122.801 32.2859 123.941 33.3609 123.941 34.7522C123.941 36.1434 122.801 37.2396 121.425 37.2396C120.037 37.2396 118.865 36.1434 118.865 34.7522C118.865 33.3609 120.027 32.2859 121.425 32.2859Z" fill="white"/>
<path d="M135.144 31.0632H132.057V38.4411H133.498V36.2699H135.144C137.037 36.2699 138.123 35.2897 138.123 33.6033C138.123 31.9802 137.037 31.0632 135.144 31.0632ZM135.068 35.0262H133.498V32.2964H135.068C136.144 32.2964 136.757 32.7391 136.757 33.6455C136.757 34.573 136.144 35.0262 135.068 35.0262Z" fill="white"/>
</g>
<g id="Group_67">
<path id="Vector_55" d="M86.387 24.7462L86.3407 16.3673L82.2293 23.1876H80.2183L76.1315 16.593V24.7462H71.9521V8.93701H75.675L81.2916 18.0602L86.7725 8.93701H90.4954L90.5416 24.7462H86.387Z" fill="#32386B"/>
<path id="Vector_56" d="M106.574 21.2904V24.7462H93.7402V8.93701H106.278V12.3929H98.2187V15.0588H105.322V18.4018H98.2187V21.2934H106.574V21.2904Z" fill="#32386B"/>
<path id="Vector_57" d="M116.074 20.5461H113.61V24.7462H109.088V8.93701H116.395C120.756 8.93701 123.498 11.1728 123.498 14.7873C123.498 17.1146 122.357 18.8288 120.371 19.7775L123.819 24.7462H118.976L116.074 20.5461ZM116.12 12.4631H113.61V17.0933H116.12C117.992 17.0933 118.93 16.2362 118.93 14.7904C118.93 13.3202 117.992 12.4631 116.12 12.4631Z" fill="#32386B"/>
<path id="Vector_58" d="M125.164 16.8429C125.164 12.0998 128.933 8.62256 134.047 8.62256C139.161 8.62256 142.93 12.0998 142.93 16.8429C142.93 21.5859 139.164 25.0632 134.047 25.0632C128.933 25.0632 125.164 21.5859 125.164 16.8429ZM138.365 16.8429C138.365 14.1099 136.471 12.3255 134.05 12.3255C131.629 12.3255 129.735 14.1099 129.735 16.8429C129.735 19.5758 131.632 21.3602 134.05 21.3602C136.468 21.3602 138.365 19.5758 138.365 16.8429Z" fill="#32386B"/>
<path id="Vector_59" d="M144.188 23.3246L145.672 20.0273C147.088 20.9545 149.099 21.5859 150.946 21.5859C152.819 21.5859 153.55 21.0674 153.55 20.2988C153.55 17.7915 144.463 19.6216 144.463 13.75C144.463 10.9255 146.792 8.62256 151.542 8.62256C153.62 8.62256 155.767 9.09534 157.34 10.0012L155.946 13.3199C154.416 12.5085 152.908 12.0998 151.517 12.0998C149.62 12.0998 148.935 12.7312 148.935 13.5212C148.935 15.937 158 14.1312 158 19.9571C158 22.7115 155.672 25.0601 150.922 25.0601C148.3 25.0632 145.697 24.3616 144.188 23.3246Z" fill="#32386B"/>
</g>
</g>
</g>
</svg>
