<svg width="25" height="24" viewBox="0 0 25 24" fill="none" xmlns="http://www.w3.org/2000/svg">
<g id="Profile">
<path id="Vector" d="M20.2782 4.22182C18.2006 2.14421 15.4382 1 12.5 1C9.56168 1 6.79942 2.14421 4.72182 4.22182C2.64421 6.29942 1.5 9.06168 1.5 12C1.5 14.9382 2.64421 17.7006 4.72182 19.7782C6.79942 21.8558 9.56168 23 12.5 23C15.4382 23 18.2006 21.8558 20.2782 19.7782C22.3558 17.7006 23.5 14.9382 23.5 12C23.5 9.06168 22.3558 6.29942 20.2782 4.22182ZM7.0146 20.0088C7.47467 17.3598 9.77014 15.4059 12.5 15.4059C15.23 15.4059 17.5253 17.3598 17.9854 20.0088C16.4236 21.0818 14.534 21.7109 12.5 21.7109C10.466 21.7109 8.57642 21.0818 7.0146 20.0088ZM9.00241 10.6193C9.00241 8.69057 10.5714 7.1217 12.5 7.1217C14.4286 7.1217 15.9976 8.69073 15.9976 10.6193C15.9976 12.5479 14.4286 14.1169 12.5 14.1169C10.5714 14.1169 9.00241 12.5479 9.00241 10.6193ZM19.1019 19.1147C18.755 17.8815 18.066 16.7626 17.1002 15.8887C16.5077 15.3524 15.8333 14.9293 15.1082 14.631C16.4187 13.7762 17.2868 12.2973 17.2868 10.6193C17.2868 7.9799 15.1394 5.83264 12.5 5.83264C9.86061 5.83264 7.71335 7.9799 7.71335 10.6193C7.71335 12.2973 8.58145 13.7762 9.89183 14.631C9.1669 14.9293 8.49232 15.3522 7.89983 15.8885C6.9342 16.7625 6.24503 17.8813 5.89809 19.1145C3.98715 17.3399 2.78906 14.8074 2.78906 12C2.78906 6.64536 7.14536 2.28906 12.5 2.28906C17.8546 2.28906 22.2109 6.64536 22.2109 12C22.2109 14.8076 21.0128 17.34 19.1019 19.1147Z" fill="#273142" stroke="#273142" stroke-width="0.5"/>
</g>
</svg>
