<svg width="35" height="35" viewBox="0 0 35 35" fill="none" xmlns="http://www.w3.org/2000/svg">
<g id="Twitter">
<ellipse id="Circle" cx="17.5003" cy="17.5003" rx="14.5833" ry="14.5833" fill="#8D909B"/>
<path id="Exclude" fill-rule="evenodd" clip-rule="evenodd" d="M20.3866 23.8395C21.2853 24.2327 21.6223 23.4089 21.6223 23.4089L24 11.4641C23.9813 10.6591 22.8954 11.1458 22.8954 11.1458L9.5839 16.3693C9.5839 16.3693 8.94734 16.594 9.00351 16.9872C9.05968 17.3803 9.56518 17.5676 9.56518 17.5676L12.9165 18.6909C12.9165 18.6909 13.9275 22.0047 14.1334 22.6413C14.3206 23.2591 14.4891 23.2778 14.4891 23.2778C14.6763 23.3527 14.8448 23.2217 14.8448 23.2217L17.0166 21.2558L20.3866 23.8395ZM20.9668 13.5792C20.9668 13.5792 21.4349 13.2984 21.4162 13.5792C21.4162 13.5792 21.4911 13.6167 21.2477 13.8788C21.023 14.1035 15.7246 18.8589 15.0132 19.4955C14.957 19.5329 14.9196 19.5891 14.9196 19.664L14.7136 21.4239C14.6762 21.6111 14.4328 21.6298 14.3766 21.4613L13.4967 18.5781C13.4592 18.4657 13.4967 18.3347 13.609 18.2598L20.9668 13.5792Z" fill="white"/>
</g>
</svg>
